<?xml version="1.0" standalone="no"?>
<!DOCTYPE svg PUBLIC "-//W3C//DTD SVG 20010904//EN"
 "http://www.w3.org/TR/2001/REC-SVG-20010904/DTD/svg10.dtd">
<svg version="1.0" xmlns="http://www.w3.org/2000/svg"
 width="256.000000pt" height="256.000000pt" viewBox="0 0 256.000000 256.000000"
 preserveAspectRatio="xMidYMid meet">

<g transform="translate(0.000000,256.000000) scale(0.100000,-0.100000)"
fill="#2091F9" stroke="none">
<path d="M1104 2481 c-41 -19 -76 -58 -86 -96 -3 -11 -9 -29 -13 -40 -5 -14
-4 -16 3 -7 7 10 11 5 16 -22 l7 -36 30 34 c42 48 122 86 181 86 26 0 48 2 48
5 0 25 -35 84 -53 89 -40 11 -92 6 -133 -13z"/>
<path d="M1013 2036 c-59 -76 -78 -99 -97 -119 -17 -18 -18 -32 -14 -141 5
-108 9 -131 38 -200 l33 -79 17 24 c10 12 50 87 90 165 l72 143 -35 83 c-19
46 -40 100 -47 120 -6 21 -15 40 -18 42 -4 2 -21 -15 -39 -38z"/>
<path d="M1261 2038 c-44 -114 -76 -188 -91 -213 -10 -16 -67 -127 -128 -245
-60 -118 -135 -262 -167 -320 -135 -246 -325 -646 -325 -683 0 -14 224 -527
230 -527 3 0 22 53 43 117 72 219 189 468 477 1018 92 174 198 426 225 533
l16 61 -88 92 c-203 212 -182 194 -192 167z"/>
<path d="M1347 1244 c-53 -107 -97 -197 -97 -200 0 -3 38 -73 84 -157 138
-250 210 -414 291 -661 l52 -159 40 59 c21 33 79 123 127 201 101 164 98 137
30 325 -54 149 -120 299 -191 432 -57 106 -220 356 -232 356 -4 0 -51 -88
-104 -196z"/>
</g>
</svg>
