<?xml version="1.0" standalone="no"?>
<!DOCTYPE svg PUBLIC "-//W3C//DTD SVG 20010904//EN"
 "http://www.w3.org/TR/2001/REC-SVG-20010904/DTD/svg10.dtd">
<svg version="1.0" xmlns="http://www.w3.org/2000/svg"
 width="256.000000pt" height="256.000000pt" viewBox="0 0 256.000000 256.000000"
 preserveAspectRatio="xMidYMid meet">

<g transform="translate(0.000000,256.000000) scale(0.100000,-0.100000)"
fill="#2091F9" stroke="none">
<path d="M1252 2232 c-13 -4 -23 -10 -23 -14 1 -5 1 -15 1 -23 0 -11 11 -15
35 -15 47 0 52 -18 21 -65 -36 -52 -34 -75 4 -75 23 0 30 5 30 19 0 10 14 35
30 56 34 43 34 45 19 79 -17 36 -66 52 -117 38z"/>
<path d="M1075 2127 c-26 -20 -10 -38 27 -30 31 6 31 6 23 -28 -13 -60 -12
-74 10 -74 14 0 22 10 28 35 4 19 11 45 14 58 3 12 0 29 -7 37 -15 19 -70 20
-95 2z"/>
<path d="M1420 2120 c0 -15 7 -20 25 -20 18 0 25 -5 25 -19 0 -10 -11 -26 -25
-35 -28 -18 -33 -41 -10 -50 24 -9 93 71 87 101 -8 42 -102 63 -102 23z"/>
<path d="M1266 2007 c-27 -20 -18 -61 15 -65 36 -4 51 17 36 48 -15 29 -28 34
-51 17z"/>
<path d="M1125 1970 c-12 -20 6 -51 28 -48 31 4 31 52 0 56 -11 2 -24 -2 -28
-8z"/>
<path d="M1400 1964 c-11 -12 -10 -18 3 -31 8 -9 23 -13 31 -10 21 8 21 43 0
51 -21 8 -20 8 -34 -10z"/>
<path d="M1179 1862 c-201 -105 -127 -412 98 -412 127 0 223 97 223 225 0 75
-47 150 -119 187 -71 37 -131 37 -202 0z"/>
<path d="M741 1650 c-99 -77 -185 -149 -191 -159 -16 -30 -12 -86 8 -110 9
-12 103 -59 207 -106 l190 -84 3 -64 c3 -60 1 -64 -23 -75 -36 -16 -105 -15
-148 3 -47 20 -46 20 -58 -15 -6 -16 -16 -30 -23 -30 -17 0 -196 -418 -196
-457 l0 -33 770 0 770 0 0 34 c0 41 -172 443 -199 466 -10 8 -21 23 -25 34 -5
14 -12 17 -29 11 -75 -24 -117 -28 -157 -16 l-41 12 3 65 3 65 190 85 c104 46
195 90 202 97 7 7 17 27 22 43 16 57 -6 82 -198 233 -148 115 -188 141 -214
141 -41 0 -71 -20 -86 -59 -19 -44 6 -84 109 -171 48 -41 87 -77 84 -79 -2 -2
-54 -20 -117 -41 -110 -36 -119 -37 -303 -43 l-190 -5 -128 43 c-70 23 -126
47 -125 51 1 5 39 41 83 80 109 95 111 98 107 157 -2 32 -47 67 -85 67 -29 0
-62 -21 -215 -140z m472 -618 l47 -21 0 -161 c0 -89 -3 -160 -7 -158 -126 63
-188 69 -340 34 -106 -25 -219 -33 -254 -18 -15 6 -9 27 43 160 46 118 63 152
75 148 51 -20 121 -17 193 7 41 14 84 28 95 31 36 9 100 -1 148 -22z m375 -9
c53 -20 79 -24 122 -20 30 3 62 8 71 11 12 5 28 -25 76 -146 53 -133 59 -154
44 -160 -35 -15 -148 -7 -254 18 -133 31 -209 28 -293 -10 l-54 -25 0 159 0
159 30 16 c77 40 149 40 258 -2z m-444 -327 c48 -15 116 -55 116 -68 0 -5
-142 -8 -315 -8 l-315 0 0 23 c0 23 1 23 85 19 63 -3 106 1 172 16 48 12 97
23 108 25 43 10 104 6 149 -7z m525 -16 c66 -17 104 -21 173 -18 86 4 88 4 88
-19 l0 -23 -315 0 c-185 0 -315 4 -315 9 0 13 64 51 113 67 54 18 148 12 256
-16z"/>
</g>
</svg>
