<?xml version="1.0" standalone="no"?>
<!DOCTYPE svg PUBLIC "-//W3C//DTD SVG 20010904//EN"
 "http://www.w3.org/TR/2001/REC-SVG-20010904/DTD/svg10.dtd">
<svg version="1.0" xmlns="http://www.w3.org/2000/svg"
 width="256.000000pt" height="166.000000pt" viewBox="0 0 256.000000 166.000000"
 preserveAspectRatio="xMidYMid meet">

<g transform="translate(0.000000,166.000000) scale(0.100000,-0.100000)"
fill="#2091F9" stroke="none">
<path d="M2052 1630 c-42 -26 -76 -99 -68 -144 27 -142 215 -173 278 -46 66
130 -85 266 -210 190z"/>
<path d="M187 1530 c-59 -47 -56 -143 7 -181 84 -51 184 10 172 106 -10 82
-114 126 -179 75z"/>
<path d="M41 1332 c-23 -19 -34 -36 -34 -55 0 -18 50 -95 162 -252 l161 -226
-60 -84 c-33 -46 -60 -86 -60 -90 0 -3 26 -5 57 -3 l57 3 51 72 50 72 370 0
370 0 50 -72 51 -72 57 -3 c31 -2 57 0 57 4 0 3 -23 37 -50 75 l-50 69 38 0
c62 0 74 15 70 90 l-3 65 -472 3 -471 2 -123 173 c-170 240 -185 257 -218 257
-15 0 -42 -12 -60 -28z"/>
<path d="M350 1319 c-30 -22 -59 -47 -63 -56 -7 -11 11 -46 69 -131 124 -180
112 -172 239 -172 96 0 123 4 251 41 l142 41 150 -41 c83 -23 154 -41 159 -41
14 0 33 46 33 80 0 33 -2 34 -215 99 l-130 40 -170 -33 c-93 -19 -173 -32
-178 -29 -4 2 -48 58 -98 124 -69 91 -95 119 -112 118 -12 0 -47 -19 -77 -40z"/>
<path d="M2003 1280 c-23 -14 -46 -45 -79 -111 -97 -195 -123 -213 -144 -104
l-12 65 -89 0 -89 0 6 -27 c3 -16 12 -54 20 -85 13 -52 13 -60 -2 -83 -24 -37
3 -115 41 -115 6 0 16 -22 21 -49 l10 -49 -32 -16 c-67 -32 -69 -38 -72 -359
-3 -288 -3 -290 19 -313 18 -19 33 -24 74 -24 42 0 56 5 76 26 24 25 24 28 27
249 l3 223 177 4 c155 3 181 5 210 23 54 33 77 98 133 382 75 382 75 383 -135
383 -113 0 -136 -3 -163 -20z m-27 -393 c-20 -85 -36 -157 -36 -161 0 -3 -18
-6 -39 -6 l-39 0 -14 63 c-15 66 -11 77 28 77 37 0 68 36 99 113 16 42 31 74
33 72 2 -2 -12 -73 -32 -158z"/>
<path d="M2442 1267 c-6 -7 -47 -172 -92 -367 -44 -195 -85 -372 -91 -392
l-10 -38 -197 0 c-225 0 -236 -3 -236 -65 0 -63 8 -65 265 -65 125 0 235 3
244 6 8 4 22 19 31 35 8 16 57 214 109 441 88 381 94 414 80 435 -12 17 -25
23 -54 23 -21 0 -43 -6 -49 -13z"/>
</g>
</svg>
