<?xml version="1.0" standalone="no"?>
<!DOCTYPE svg PUBLIC "-//W3C//DTD SVG 20010904//EN"
 "http://www.w3.org/TR/2001/REC-SVG-20010904/DTD/svg10.dtd">
<svg version="1.0" xmlns="http://www.w3.org/2000/svg"
 width="256.000000pt" height="191.000000pt" viewBox="0 0 256.000000 191.000000"
 preserveAspectRatio="xMidYMid meet">

<g transform="translate(0.000000,191.000000) scale(0.100000,-0.100000)"
fill="#2091F9" stroke="none">
<path d="M692 1520 c0 -19 2 -27 5 -17 2 9 2 25 0 35 -3 9 -5 1 -5 -18z"/>
<path d="M2078 1473 c7 -3 16 -2 19 1 4 3 -2 6 -13 5 -11 0 -14 -3 -6 -6z"/>
<path d="M1500 1450 c-9 -6 -10 -10 -3 -10 6 0 15 5 18 10 8 12 4 12 -15 0z"/>
<path d="M1590 1457 c0 -2 15 -16 33 -33 l32 -29 -29 33 c-28 30 -36 37 -36
29z"/>
<path d="M2141 1444 c0 -11 3 -14 6 -6 3 7 2 16 -1 19 -3 4 -6 -2 -5 -13z"/>
<path d="M1989 1413 c-13 -16 -12 -17 4 -4 9 7 17 15 17 17 0 8 -8 3 -21 -13z"/>
<path d="M1473 1380 c0 -25 2 -35 4 -22 2 12 2 32 0 45 -2 12 -4 2 -4 -23z"/>
<path d="M2030 1395 c-7 -9 -19 -14 -27 -11 -18 7 -17 -9 2 -24 12 -10 15 -10
15 3 0 9 10 23 22 31 12 9 17 16 11 16 -6 0 -16 -7 -23 -15z"/>
<path d="M2080 1391 c8 -6 17 -8 21 -6 3 3 9 -14 13 -36 6 -41 7 -41 26 -24
11 10 20 23 19 29 0 6 -3 6 -6 -1 -10 -26 -33 -13 -33 17 0 26 -4 30 -27 30
-21 0 -24 -3 -13 -9z"/>
<path d="M1512 1368 c-21 -21 -13 -49 23 -85 l35 -35 -26 -44 c-15 -25 -24
-47 -21 -50 3 -3 8 4 12 16 4 11 17 32 31 47 29 32 32 63 5 56 -21 -5 -61 39
-61 69 0 30 30 34 53 7 l19 -24 -14 25 c-18 29 -38 36 -56 18z"/>
<path d="M532 1361 c-11 -6 -10 -10 0 -19 11 -8 14 -7 14 9 0 10 0 19 -1 19 0
0 -6 -4 -13 -9z"/>
<path d="M651 1353 c7 -12 15 -20 18 -17 3 2 -3 12 -13 22 -17 16 -18 16 -5
-5z"/>
<path d="M474 1318 l-19 -23 23 19 c21 18 27 26 19 26 -2 0 -12 -10 -23 -22z"/>
<path d="M2021 1337 c-2 -22 31 -67 49 -67 11 0 20 -5 20 -11 0 -7 10 -9 28
-4 15 3 38 7 52 7 l25 0 -25 11 c-14 6 -28 16 -32 22 -4 5 -8 0 -8 -12 0 -14
-6 -23 -15 -23 -8 0 -15 5 -15 10 0 6 -10 10 -23 10 -16 0 -28 10 -40 33 -8
17 -16 28 -16 24z"/>
<path d="M1482 1310 c0 -14 2 -19 5 -12 2 6 2 18 0 25 -3 6 -5 1 -5 -13z"/>
<path d="M1677 1310 c-9 -11 -13 -20 -7 -20 5 0 14 9 20 20 6 11 9 20 8 20 -2
0 -11 -9 -21 -20z"/>
<path d="M1597 1299 c11 -12 27 -19 35 -17 9 2 1 10 -20 20 l-36 17 21 -20z"/>
<path d="M353 1303 c15 -2 37 -2 50 0 12 2 0 4 -28 4 -27 0 -38 -2 -22 -4z"/>
<path d="M263 1293 c9 -2 23 -2 30 0 6 3 -1 5 -18 5 -16 0 -22 -2 -12 -5z"/>
<path d="M427 1279 c-4 -16 -3 -18 9 -8 16 13 19 29 5 29 -5 0 -11 -9 -14 -21z"/>
<path d="M195 1279 c-30 -15 -42 -40 -34 -69 6 -23 7 -23 8 -3 2 37 13 55 45
69 17 7 24 13 16 13 -8 0 -24 -5 -35 -10z"/>
<path d="M582 1265 c23 -24 30 -27 40 -16 11 11 10 13 0 6 -8 -4 -24 2 -40 16
l-27 23 27 -29z"/>
<path d="M1626 1261 c12 -13 89 -29 101 -22 8 4 -10 11 -46 17 -33 5 -58 8
-55 5z"/>
<path d="M1488 1248 c5 -5 16 -8 23 -6 8 3 3 7 -10 11 -17 4 -21 3 -13 -5z"/>
<path d="M405 1239 c-4 -6 -5 -12 -2 -15 2 -3 7 2 10 11 7 17 1 20 -8 4z"/>
<path d="M1828 1243 c6 -2 18 -2 25 0 6 3 1 5 -13 5 -14 0 -19 -2 -12 -5z"/>
<path d="M2045 1240 c-8 -13 5 -13 25 0 13 8 13 10 -2 10 -9 0 -20 -4 -23 -10z"/>
<path d="M1888 1233 c7 -3 16 -2 19 1 4 3 -2 6 -13 5 -11 0 -14 -3 -6 -6z"/>
<path d="M2005 1220 c-11 -5 -16 -9 -12 -9 4 -1 -3 -16 -17 -34 -15 -19 -26
-38 -26 -43 0 -4 7 3 17 16 9 14 27 37 41 53 28 29 27 30 -3 17z"/>
<path d="M1743 1199 c14 -24 24 -55 41 -133 4 -15 9 -26 12 -23 10 9 -28 133
-48 157 l-20 25 15 -26z"/>
<path d="M125 1147 c-4 -30 -5 -63 -3 -73 3 -11 8 12 13 49 4 37 5 70 2 73 -3
3 -8 -19 -12 -49z"/>
<path d="M172 1145 c0 -16 2 -22 5 -12 2 9 2 23 0 30 -3 6 -5 -1 -5 -18z"/>
<path d="M701 1144 c0 -11 3 -14 6 -6 3 7 2 16 -1 19 -3 4 -6 -2 -5 -13z"/>
<path d="M2310 1143 c0 -17 4 -20 22 -15 16 4 18 7 8 10 -8 3 -18 10 -22 16
-5 6 -8 2 -8 -11z"/>
<path d="M1703 1085 c23 -25 29 -27 37 -15 5 8 6 19 2 25 -4 6 -8 2 -10 -8 -4
-17 -6 -17 -30 4 -26 23 -26 23 1 -6z"/>
<path d="M2324 1010 c0 -58 1 -81 3 -52 2 28 2 76 0 105 -2 28 -3 5 -3 -53z"/>
<path d="M1501 1084 c0 -11 3 -14 6 -6 3 7 2 16 -1 19 -3 4 -6 -2 -5 -13z"/>
<path d="M1655 1089 c-4 -6 -5 -12 -2 -15 2 -3 7 2 10 11 7 17 1 20 -8 4z"/>
<path d="M1916 1075 c-9 -26 -7 -32 5 -12 6 10 9 21 6 23 -2 3 -7 -2 -11 -11z"/>
<path d="M341 1044 c0 -11 3 -14 6 -6 3 7 2 16 -1 19 -3 4 -6 -2 -5 -13z"/>
<path d="M452 1031 c-15 -44 -15 -46 4 -27 8 9 14 26 12 38 -3 20 -5 19 -16
-11z"/>
<path d="M1660 1047 c0 -8 7 -14 15 -14 11 0 12 4 4 14 -6 7 -13 13 -15 13 -2
0 -4 -6 -4 -13z"/>
<path d="M1491 1034 c0 -11 3 -14 6 -6 3 7 2 16 -1 19 -3 4 -6 -2 -5 -13z"/>
<path d="M699 1007 c35 -37 51 -46 51 -27 0 6 -5 10 -12 10 -7 0 -26 12 -42
27 -27 24 -26 23 3 -10z"/>
<path d="M787 1023 c-11 -11 -8 -20 7 -20 8 0 12 6 9 14 -6 15 -7 15 -16 6z"/>
<path d="M1036 990 c-24 -22 -49 -40 -55 -40 -7 0 -10 -3 -8 -7 2 -5 -10 -21
-26 -38 -27 -27 -30 -28 -24 -7 3 12 1 22 -3 22 -5 0 -10 -36 -12 -80 -2 -44
0 -80 5 -80 4 0 7 16 7 36 0 19 4 33 9 30 4 -3 6 5 3 19 -3 19 10 38 64 94 37
39 76 73 85 76 10 4 31 -1 46 -11 l28 -16 -24 21 c-32 29 -45 27 -95 -19z"/>
<path d="M1784 1015 c22 -17 40 -20 32 -6 -3 5 -16 11 -28 14 -22 6 -22 5 -4
-8z"/>
<path d="M332 1000 c0 -14 2 -19 5 -12 2 6 2 18 0 25 -3 6 -5 1 -5 -13z"/>
<path d="M1877 1000 c-9 -11 -13 -20 -8 -20 11 0 35 29 29 35 -2 2 -12 -4 -21
-15z"/>
<path d="M2361 1004 c0 -11 3 -14 6 -6 3 7 2 16 -1 19 -3 4 -6 -2 -5 -13z"/>
<path d="M470 988 c0 -9 -3 -25 -6 -35 -6 -15 -4 -16 7 -5 8 7 47 13 99 14
l85 2 -80 3 c-60 3 -83 8 -92 20 -12 15 -13 15 -13 1z"/>
<path d="M1577 989 c7 -9 10 -19 6 -22 -3 -4 1 -7 9 -7 34 0 30 -34 -8 -67
-20 -18 -32 -33 -26 -33 17 0 52 31 66 60 12 23 10 27 -23 55 -20 16 -30 23
-24 14z"/>
<path d="M1994 977 l-19 -22 21 18 c17 14 23 15 27 5 4 -9 6 -9 6 -1 2 22 -16
23 -35 0z"/>
<path d="M836 981 c6 -7 24 -14 40 -16 33 -6 16 8 -26 20 -19 5 -22 4 -14 -4z"/>
<path d="M1757 970 c3 -11 7 -20 9 -20 2 0 4 9 4 20 0 11 -4 20 -9 20 -5 0 -7
-9 -4 -20z"/>
<path d="M2521 974 c0 -11 3 -14 6 -6 3 7 2 16 -1 19 -3 4 -6 -2 -5 -13z"/>
<path d="M220 973 c0 -5 12 -20 28 -34 l27 -24 -25 30 c-14 17 -26 32 -27 34
-2 2 -3 0 -3 -6z"/>
<path d="M1157 969 c7 -9 10 -19 6 -22 -3 -4 -1 -7 5 -7 17 0 15 16 -5 31 -16
12 -17 12 -6 -2z"/>
<path d="M924 945 c8 -8 18 -15 22 -15 3 0 1 7 -6 15 -7 8 -17 15 -22 15 -5 0
-3 -7 6 -15z"/>
<path d="M1515 895 c-53 -48 -57 -55 -36 -55 13 0 21 3 17 7 -3 4 15 28 41 55
63 64 52 60 -22 -7z"/>
<path d="M1810 941 c0 -8 41 -23 47 -17 2 1 -8 8 -22 14 -14 6 -25 8 -25 3z"/>
<path d="M1956 934 c-5 -14 -4 -15 9 -4 17 14 19 20 6 20 -5 0 -12 -7 -15 -16z"/>
<path d="M339 921 c8 -14 8 -20 -2 -24 -6 -2 0 -6 16 -9 20 -4 25 -2 17 7 -5
6 -8 14 -5 16 2 3 -5 10 -16 17 -18 12 -19 11 -10 -7z"/>
<path d="M399 929 c-11 -7 -11 -9 2 -9 10 0 32 -17 50 -37 17 -21 39 -42 48
-47 14 -8 -6 17 -70 84 -11 12 -21 15 -30 9z"/>
<path d="M1858 918 c-17 -17 -17 -18 1 -18 10 0 21 7 24 15 9 22 -6 24 -25 3z"/>
<path d="M2195 884 c-28 -29 -48 -54 -45 -54 6 0 67 63 89 93 25 32 6 16 -44
-39z"/>
<path d="M2533 905 c0 -22 2 -30 4 -17 2 12 2 30 0 40 -3 9 -5 -1 -4 -23z"/>
<path d="M1423 880 c-42 -46 -53 -70 -32 -70 5 0 7 -5 3 -11 -3 -6 -15 -9 -25
-6 -22 6 -26 -8 -5 -16 7 -3 19 0 25 6 7 7 40 15 74 18 l62 6 -62 1 c-64 2
-101 22 -41 22 22 0 29 3 19 9 -10 7 -11 13 -2 30 7 11 15 21 19 21 4 0 8 9 9
20 1 11 1 20 0 19 -1 -1 -21 -22 -44 -49z"/>
<path d="M2087 919 c-10 -6 -25 -8 -32 -5 -8 3 -17 1 -20 -4 -10 -16 39 -12
61 5 22 17 17 19 -9 4z"/>
<path d="M1788 907 c-12 -9 -14 -17 -7 -30 6 -9 15 -17 21 -17 6 0 5 6 -3 16
-11 14 -10 18 6 30 10 8 15 14 9 14 -5 0 -16 -6 -26 -13z"/>
<path d="M1908 908 c9 -9 15 -9 24 0 9 9 7 12 -12 12 -19 0 -21 -3 -12 -12z"/>
<path d="M1719 884 c-8 -10 -27 -25 -44 -36 -16 -10 -25 -18 -18 -18 6 0 26
12 45 27 18 15 35 28 37 30 2 2 2 5 -1 8 -3 3 -11 -2 -19 -11z"/>
<path d="M1950 885 c0 -8 2 -15 4 -15 2 0 6 7 10 15 3 8 1 15 -4 15 -6 0 -10
-7 -10 -15z"/>
<path d="M2313 860 c0 -25 2 -35 4 -22 2 12 2 32 0 45 -2 12 -4 2 -4 -23z"/>
<path d="M1115 828 l-60 -63 63 60 c58 55 67 65 59 65 -1 0 -29 -28 -62 -62z"/>
<path d="M2352 865 c0 -16 2 -22 5 -12 2 9 2 23 0 30 -3 6 -5 -1 -5 -18z"/>
<path d="M2462 830 c0 -19 2 -27 5 -17 2 9 2 25 0 35 -3 9 -5 1 -5 -18z"/>
<path d="M2028 830 c27 -11 27 -17 5 -44 -18 -21 -18 -21 2 -5 11 9 27 19 35
22 8 3 10 6 3 6 -7 1 -10 8 -7 16 5 12 -2 15 -27 14 -31 0 -32 -1 -11 -9z"/>
<path d="M637 819 c7 -7 15 -10 18 -7 3 3 -2 9 -12 12 -14 6 -15 5 -6 -5z"/>
<path d="M2098 823 c6 -2 18 -2 25 0 6 3 1 5 -13 5 -14 0 -19 -2 -12 -5z"/>
<path d="M541 791 c-7 -15 -11 -50 -8 -77 l3 -49 2 56 c1 37 7 61 17 69 21 18
27 9 41 -63 8 -41 12 -52 13 -31 1 24 7 33 23 37 18 5 19 8 8 21 -7 9 -18 16
-25 16 -7 0 -20 11 -29 25 -21 32 -31 32 -45 -4z m89 -41 c0 -5 -7 -10 -15
-10 -8 0 -15 5 -15 10 0 6 7 10 15 10 8 0 15 -4 15 -10z"/>
<path d="M1548 813 c6 -2 18 -2 25 0 6 3 1 5 -13 5 -14 0 -19 -2 -12 -5z"/>
<path d="M2533 770 c0 -30 2 -43 4 -27 2 15 2 39 0 55 -2 15 -4 2 -4 -28z"/>
<path d="M959 788 c7 -10 11 -33 9 -53 -2 -19 0 -35 4 -35 4 0 8 13 8 28 0 26
3 28 29 24 16 -2 31 0 35 6 3 5 -5 7 -20 4 -17 -3 -33 3 -52 19 -14 13 -20 16
-13 7z"/>
<path d="M2300 765 c0 -8 -8 -15 -17 -16 -11 0 -13 -3 -5 -6 6 -2 12 -16 12
-29 0 -28 12 -31 31 -6 13 15 12 16 -3 3 -16 -12 -17 -10 -12 28 3 23 3 41 0
41 -3 0 -6 -7 -6 -15z"/>
<path d="M172 758 c-7 -7 -11 -26 -11 -42 l2 -31 4 30 c3 17 9 36 15 43 13 15
6 16 -10 0z"/>
<path d="M2452 740 c0 -14 2 -19 5 -12 2 6 2 18 0 25 -3 6 -5 1 -5 -13z"/>
<path d="M1362 705 c0 -16 2 -22 5 -12 2 9 2 23 0 30 -3 6 -5 -1 -5 -18z"/>
<path d="M1821 699 c-13 -17 -42 -39 -64 -50 -23 -10 -36 -19 -29 -19 29 0 94
47 113 83 15 27 5 20 -20 -14z"/>
<path d="M2029 713 c-13 -16 -12 -17 4 -4 16 13 21 21 13 21 -2 0 -10 -8 -17
-17z"/>
<path d="M870 695 c13 -14 26 -25 28 -25 3 0 -5 11 -18 25 -13 14 -26 25 -28
25 -3 0 5 -11 18 -25z"/>
<path d="M2516 679 c-8 -42 0 -50 9 -9 4 17 5 34 2 36 -2 3 -7 -10 -11 -27z"/>
<path d="M1889 683 c-13 -16 -12 -17 4 -4 16 13 21 21 13 21 -2 0 -10 -8 -17
-17z"/>
<path d="M1331 664 c0 -11 3 -14 6 -6 3 7 2 16 -1 19 -3 4 -6 -2 -5 -13z"/>
<path d="M542 630 c0 -19 2 -27 5 -17 2 9 2 25 0 35 -3 9 -5 1 -5 -18z"/>
<path d="M1805 613 c-27 -27 -51 -47 -54 -46 -3 1 -7 -15 -8 -35 l-2 -37 18
40 c10 22 38 59 62 83 24 23 41 42 38 42 -3 0 -27 -21 -54 -47z"/>
<path d="M2234 638 l-19 -23 23 19 c21 18 27 26 19 26 -2 0 -12 -10 -23 -22z"/>
<path d="M2377 583 c-32 -41 -72 -82 -89 -93 -31 -19 -32 -19 -56 1 -14 10
-38 19 -55 19 -25 0 -28 3 -24 21 4 14 2 18 -6 11 -7 -5 -25 -14 -42 -21 l-30
-11 29 5 c26 6 28 4 22 -17 -3 -13 -6 -26 -6 -30 0 -5 -8 -8 -17 -9 -11 0 -13
-3 -5 -6 6 -2 12 -17 13 -31 1 -19 4 -13 10 17 9 48 21 61 57 61 34 0 62 -18
62 -40 0 -19 1 -19 22 -2 60 48 112 100 144 144 57 77 35 63 -29 -19z"/>
<path d="M1471 634 c0 -11 3 -14 6 -6 3 7 2 16 -1 19 -3 4 -6 -2 -5 -13z"/>
<path d="M1899 613 l-24 -28 28 24 c15 14 27 26 27 28 0 8 -8 1 -31 -24z"/>
<path d="M1618 623 c17 -2 47 -2 65 0 17 2 3 4 -33 4 -36 0 -50 -2 -32 -4z"/>
<path d="M607 590 c3 -11 7 -20 9 -20 2 0 4 9 4 20 0 11 -4 20 -9 20 -5 0 -7
-9 -4 -20z"/>
<path d="M1480 593 c0 -5 31 -23 68 -42 37 -18 63 -29 57 -24 -18 17 -125 73
-125 66z"/>
<path d="M2169 573 c-13 -16 -12 -17 4 -4 16 13 21 21 13 21 -2 0 -10 -8 -17
-17z"/>
<path d="M2475 562 c-6 -9 -8 -44 -5 -77 l6 -60 5 75 c2 41 4 76 4 77 0 1 -5
-6 -10 -15z"/>
<path d="M646 541 c-3 -5 1 -11 9 -15 8 -3 15 -1 15 4 0 13 -18 22 -24 11z"/>
<path d="M1481 534 c0 -11 3 -14 6 -6 3 7 2 16 -1 19 -3 4 -6 -2 -5 -13z"/>
<path d="M578 533 c6 -2 18 -2 25 0 6 3 1 5 -13 5 -14 0 -19 -2 -12 -5z"/>
<path d="M813 533 c15 -2 37 -2 50 0 12 2 0 4 -28 4 -27 0 -38 -2 -22 -4z"/>
<path d="M538 523 c7 -3 16 -2 19 1 4 3 -2 6 -13 5 -11 0 -14 -3 -6 -6z"/>
<path d="M938 523 c7 -3 16 -2 19 1 4 3 -2 6 -13 5 -11 0 -14 -3 -6 -6z"/>
<path d="M215 510 c3 -5 8 -10 11 -10 2 0 4 5 4 10 0 6 -5 10 -11 10 -5 0 -7
-4 -4 -10z"/>
<path d="M488 513 c6 -2 18 -2 25 0 6 3 1 5 -13 5 -14 0 -19 -2 -12 -5z"/>
<path d="M168 503 c7 -3 16 -2 19 1 4 3 -2 6 -13 5 -11 0 -14 -3 -6 -6z"/>
<path d="M438 503 c6 -2 18 -2 25 0 6 3 1 5 -13 5 -14 0 -19 -2 -12 -5z"/>
<path d="M538 503 c7 -3 16 -2 19 1 4 3 -2 6 -13 5 -11 0 -14 -3 -6 -6z"/>
<path d="M1108 503 c7 -3 16 -2 19 1 4 3 -2 6 -13 5 -11 0 -14 -3 -6 -6z"/>
<path d="M1821 494 c0 -11 3 -14 6 -6 3 7 2 16 -1 19 -3 4 -6 -2 -5 -13z"/>
<path d="M335 490 c-35 -6 -36 -7 -10 -9 17 -1 41 -4 55 -6 21 -5 22 -4 5 4
-18 8 -17 9 10 13 24 4 25 5 5 5 -14 0 -43 -3 -65 -7z"/>
<path d="M1963 485 c-8 -23 0 -25 21 -4 18 17 18 19 2 19 -9 0 -19 -7 -23 -15z"/>
<path d="M236 475 c4 -8 16 -21 28 -27 19 -10 19 -9 8 5 -11 13 -10 16 5 21
15 4 15 4 -2 3 -11 -1 -26 2 -32 6 -9 6 -11 3 -7 -8z"/>
<path d="M1703 474 c16 -8 31 -13 35 -10 8 8 1 12 -33 20 l-30 6 28 -16z"/>
<path d="M760 470 c16 -10 15 -12 -15 -28 -11 -6 -15 -12 -9 -12 5 0 18 6 29
13 18 14 14 37 -8 37 -7 0 -6 -4 3 -10z"/>
<path d="M1390 470 c-12 -8 -10 -10 8 -10 13 0 20 4 17 10 -7 12 -6 12 -25 0z"/>
<path d="M2411 464 c0 -11 3 -14 6 -6 3 7 2 16 -1 19 -3 4 -6 -2 -5 -13z"/>
<path d="M330 460 c0 -5 10 -14 23 -20 20 -10 20 -10 5 3 -10 8 -15 17 -11 20
3 4 1 7 -5 7 -7 0 -12 -4 -12 -10z"/>
<path d="M840 466 c0 -2 8 -10 18 -17 15 -13 16 -12 3 4 -13 16 -21 21 -21 13z"/>
<path d="M2043 463 c9 -2 23 -2 30 0 6 3 -1 5 -18 5 -16 0 -22 -2 -12 -5z"/>
<path d="M12 448 c-17 -17 -15 -33 5 -49 15 -13 15 -12 3 8 -11 18 -12 24 -1
37 16 19 10 21 -7 4z"/>
<path d="M1270 443 c12 -18 12 -24 -1 -40 -13 -16 -13 -17 4 -4 21 17 22 35 0
52 -15 13 -15 12 -3 -8z"/>
<path d="M290 435 c0 -2 23 -16 50 -30 28 -14 50 -23 50 -20 0 2 -22 16 -50
30 -27 14 -50 23 -50 20z"/>
<path d="M678 418 c-35 -9 -53 -28 -28 -28 13 0 70 29 70 35 0 3 -1 5 -2 4 -2
-1 -20 -6 -40 -11z"/>
<path d="M2344 408 l-19 -23 23 19 c21 18 27 26 19 26 -2 0 -12 -10 -23 -22z"/>
<path d="M2421 420 c0 -8 4 -24 9 -35 5 -13 9 -14 9 -5 0 8 -4 24 -9 35 -5 13
-9 14 -9 5z"/>
<path d="M2242 400 c0 -14 2 -19 5 -12 2 6 2 18 0 25 -3 6 -5 1 -5 -13z"/>
<path d="M430 400 c8 -5 20 -10 25 -10 6 0 3 5 -5 10 -8 5 -19 10 -25 10 -5 0
-3 -5 5 -10z"/>
<path d="M755 394 c-63 -17 -79 -23 -73 -29 5 -5 138 34 138 40 0 6 -4 5 -65
-11z"/>
<path d="M2460 388 c0 -15 -6 -28 -12 -31 -10 -3 -10 -7 -1 -17 9 -10 13 -5
19 24 3 20 4 40 0 43 -3 4 -6 -5 -6 -19z"/>
<path d="M2123 378 c5 -14 1 -18 -16 -19 -17 -1 -15 -3 8 -8 17 -4 40 -13 52
-19 12 -7 30 -12 40 -11 10 0 4 5 -14 10 -17 5 -42 22 -54 37 -12 15 -19 19
-16 10z"/>
<path d="M78 368 c5 -5 16 -8 23 -6 8 3 3 7 -10 11 -17 4 -21 3 -13 -5z"/>
<path d="M1195 370 c-19 -8 -19 -9 2 -9 12 -1 25 4 28 9 7 12 -2 12 -30 0z"/>
<path d="M2018 373 c7 -3 16 -2 19 1 4 3 -2 6 -13 5 -11 0 -14 -3 -6 -6z"/>
<path d="M2058 363 c7 -3 16 -2 19 1 4 3 -2 6 -13 5 -11 0 -14 -3 -6 -6z"/>
<path d="M1142 308 l1 -53 4 45 c3 24 10 48 16 52 8 5 6 8 -5 8 -15 0 -18 -8
-16 -52z"/>
<path d="M2267 353 c-2 -5 -1 -19 4 -33 7 -23 7 -23 8 8 1 31 -3 40 -12 25z"/>
<path d="M93 305 c0 -27 2 -38 4 -22 2 15 2 37 0 50 -2 12 -4 0 -4 -28z"/>
<path d="M150 310 c0 -22 2 -40 4 -40 2 0 6 18 8 40 2 22 0 40 -4 40 -5 0 -8
-18 -8 -40z"/>
<path d="M583 343 c9 -2 23 -2 30 0 6 3 -1 5 -18 5 -16 0 -22 -2 -12 -5z"/>
<path d="M1790 330 c-6 -11 -8 -20 -6 -20 3 0 10 9 16 20 6 11 8 20 6 20 -3 0
-10 -9 -16 -20z"/>
<path d="M248 333 c6 -2 18 -2 25 0 6 3 1 5 -13 5 -14 0 -19 -2 -12 -5z"/>
<path d="M528 333 c6 -2 18 -2 25 0 6 3 1 5 -13 5 -14 0 -19 -2 -12 -5z"/>
<path d="M1023 333 c9 -2 23 -2 30 0 6 3 -1 5 -18 5 -16 0 -22 -2 -12 -5z"/>
<path d="M313 323 c9 -2 23 -2 30 0 6 3 -1 5 -18 5 -16 0 -22 -2 -12 -5z"/>
<path d="M953 323 c9 -2 23 -2 30 0 6 3 -1 5 -18 5 -16 0 -22 -2 -12 -5z"/>
<path d="M1203 285 c0 -27 2 -38 4 -22 2 15 2 37 0 50 -2 12 -4 0 -4 -28z"/>
<path d="M438 313 c7 -3 16 -2 19 1 4 3 -2 6 -13 5 -11 0 -14 -3 -6 -6z"/>
<path d="M838 313 c7 -3 16 -2 19 1 4 3 -2 6 -13 5 -11 0 -14 -3 -6 -6z"/>
<path d="M1681 273 c-1 -23 -10 -39 -33 -57 -18 -14 -30 -26 -26 -26 4 0 23
14 42 30 29 26 36 28 43 15 8 -14 11 -14 28 1 11 8 14 13 8 9 -19 -9 -51 12
-56 37 -3 17 -5 15 -6 -9z"/>
<path d="M2211 264 c0 -11 3 -14 6 -6 3 7 2 16 -1 19 -3 4 -6 -2 -5 -13z"/>
<path d="M1361 254 c0 -11 3 -14 6 -6 3 7 2 16 -1 19 -3 4 -6 -2 -5 -13z"/>
<path d="M1393 233 c16 -16 18 -16 35 2 16 18 16 18 -2 4 -15 -11 -20 -11 -23
-1 -3 6 -10 12 -16 12 -6 0 -4 -8 6 -17z"/>
<path d="M102 210 c0 -19 2 -27 5 -17 2 9 2 25 0 35 -3 9 -5 1 -5 -18z"/>
<path d="M2262 220 c0 -14 2 -19 5 -12 2 6 2 18 0 25 -3 6 -5 1 -5 -13z"/>
<path d="M1192 200 c0 -19 2 -27 5 -17 2 9 2 25 0 35 -3 9 -5 1 -5 -18z"/>
<path d="M2221 224 c-1 -6 4 -25 10 -43 12 -33 29 -42 29 -14 0 9 -3 13 -7 9
-4 -4 -13 8 -19 26 -7 18 -13 28 -13 22z"/>
<path d="M1679 173 c-13 -16 -12 -17 4 -4 16 13 21 21 13 21 -2 0 -10 -8 -17
-17z"/>
<path d="M2004 179 c-3 -6 -17 -9 -30 -6 -25 4 -34 -8 -11 -16 9 -3 9 -7 -2
-20 -9 -11 -10 -17 -2 -17 6 0 11 4 11 9 0 5 7 17 16 26 12 12 20 13 29 5 11
-9 12 -7 8 9 -6 24 -9 25 -19 10z"/>
<path d="M140 152 c0 -17 -4 -34 -10 -37 -13 -8 -13 -35 -1 -35 11 0 26 88 17
97 -3 4 -6 -8 -6 -25z"/>
<path d="M1156 135 c9 -73 22 -77 29 -9 4 34 3 35 -4 9 l-8 -30 -7 30 c-13 52
-16 52 -10 0z"/>
<path d="M1587 166 c-3 -8 2 -20 11 -27 14 -11 15 -11 5 0 -6 7 -9 20 -6 27 3
8 3 14 0 14 -3 0 -7 -6 -10 -14z"/>
<path d="M111 154 c0 -11 3 -14 6 -6 3 7 2 16 -1 19 -3 4 -6 -2 -5 -13z"/>
</g>
</svg>
