<?xml version="1.0" standalone="no"?>
<!DOCTYPE svg PUBLIC "-//W3C//DTD SVG 20010904//EN"
 "http://www.w3.org/TR/2001/REC-SVG-20010904/DTD/svg10.dtd">
<svg version="1.0" xmlns="http://www.w3.org/2000/svg"
 width="256.000000pt" height="256.000000pt" viewBox="0 0 256.000000 256.000000"
 preserveAspectRatio="xMidYMid meet">

<g transform="translate(0.000000,256.000000) scale(0.100000,-0.100000)"
fill="#000000" stroke="none">
<path d="M1280 2335 l0 -227 223 4 c206 3 225 5 264 25 22 12 54 38 70 57 l28
34 50 -24 c183 -88 299 -273 312 -498 l6 -102 56 -17 c31 -10 62 -21 70 -24
11 -4 13 20 9 138 -4 124 -8 155 -32 224 -61 178 -194 329 -361 411 -79 38
-93 49 -104 79 -17 48 -56 92 -105 118 -38 20 -57 22 -263 25 l-223 3 0 -226z"/>
<path d="M595 2341 c-173 -81 -311 -240 -372 -426 -21 -65 -27 -106 -31 -217
l-5 -137 56 19 c31 11 63 20 72 20 12 0 15 15 15 78 1 169 56 309 170 422 39
39 92 79 131 99 l65 34 -12 36 c-7 20 -13 51 -14 69 0 17 -3 32 -7 32 -5 -1
-35 -14 -68 -29z"/>
<path d="M2350 740 c-8 -6 -39 -17 -67 -26 l-53 -15 0 -98 c0 -127 -18 -186
-71 -240 -59 -59 -109 -71 -292 -71 l-150 0 6 -34 c3 -19 2 -50 -3 -71 l-8
-37 191 4 c184 3 195 4 249 30 79 37 142 98 181 177 30 62 32 72 35 196 5 168
2 198 -18 185z"/>
</g>
</svg>
