<?xml version="1.0" standalone="no"?>
<!DOCTYPE svg PUBLIC "-//W3C//DTD SVG 20010904//EN"
 "http://www.w3.org/TR/2001/REC-SVG-20010904/DTD/svg10.dtd">
<svg version="1.0" xmlns="http://www.w3.org/2000/svg"
 width="256.000000pt" height="256.000000pt" viewBox="0 0 256.000000 256.000000"
 preserveAspectRatio="xMidYMid meet">

<g transform="translate(0.000000,256.000000) scale(0.100000,-0.100000)"
fill="#2091F9" stroke="none">
<path d="M1956 2006 c-106 -64 -117 -219 -20 -293 135 -102 317 15 282 181
-25 115 -161 174 -262 112z"/>
<path d="M739 1987 c-69 -46 -99 -121 -80 -194 15 -54 46 -92 95 -114 54 -24
100 -24 153 2 124 60 131 226 13 307 -46 31 -134 31 -181 -1z"/>
<path d="M2372 1708 c-9 -9 -12 -77 -12 -244 0 -229 0 -233 22 -248 12 -9 34
-16 48 -16 14 0 36 7 48 16 22 15 22 19 22 240 0 136 -4 233 -10 245 -8 15
-21 19 -58 19 -27 0 -53 -5 -60 -12z"/>
<path d="M207 1692 c-15 -16 -17 -48 -17 -236 0 -131 4 -225 10 -237 15 -28
105 -28 120 0 6 12 10 107 10 240 0 186 -2 222 -16 235 -22 22 -87 21 -107 -2z"/>
<path d="M2165 1651 c-11 -5 -67 -57 -125 -115 l-105 -106 -137 0 c-130 0
-138 -1 -152 -22 -22 -32 -20 -55 9 -83 23 -24 29 -25 162 -25 l138 0 137 131
c76 72 142 128 148 124 6 -3 -39 -53 -99 -111 l-109 -105 -17 -94 c-20 -109
-5 -100 -185 -111 -131 -7 -172 -20 -193 -61 -8 -15 -43 -120 -78 -232 -58
-189 -61 -206 -48 -230 17 -30 78 -42 97 -18 7 8 37 81 68 163 31 82 65 173
76 202 l19 52 205 0 c221 0 247 5 273 52 7 13 23 132 36 264 24 251 22 279
-18 312 -20 17 -77 24 -102 13z"/>
<path d="M1038 1633 c-8 -10 -27 -74 -43 -143 -15 -69 -31 -133 -35 -143 -4
-14 -20 11 -59 94 -36 78 -49 115 -41 123 7 7 10 6 10 -2 0 -7 4 -12 9 -12 18
0 -2 41 -32 66 -28 23 -38 26 -93 22 -34 -2 -70 -10 -80 -18 -24 -20 -254
-495 -254 -525 0 -14 13 -39 29 -57 l29 -33 166 -3 c91 -2 166 -7 166 -10 0
-4 -18 -68 -40 -142 -22 -74 -40 -136 -40 -137 0 -2 31 -3 68 -3 l68 0 57 168
c32 92 57 177 57 188 0 12 -8 31 -17 43 -16 18 -33 22 -150 28 l-133 8 25 53
c13 29 37 71 53 95 l29 42 -49 104 c-32 70 -45 108 -38 115 6 6 19 -12 39 -55
84 -184 129 -275 144 -287 48 -40 144 -18 167 37 11 27 70 324 70 353 0 22
-27 48 -49 48 -10 0 -25 -8 -33 -17z"/>
<path d="M1315 1588 c-72 -205 -95 -272 -95 -280 0 -5 7 -8 16 -6 18 3 119
272 108 289 -8 13 -24 11 -29 -3z"/>
<path d="M1486 1592 c-3 -6 0 -25 7 -43 8 -19 31 -82 52 -141 23 -68 42 -108
51 -108 21 0 18 14 -34 159 -45 126 -62 156 -76 133z"/>
<path d="M1070 1238 c-33 -71 -128 -95 -190 -50 -37 28 -40 27 -40 -3 0 -23 3
-25 49 -25 38 0 56 -6 79 -25 52 -43 50 -60 -32 -301 -42 -120 -80 -227 -86
-237 -10 -16 8 -17 313 -17 l324 0 -4 48 c-3 37 10 89 61 252 58 184 68 208
100 238 23 21 46 32 65 32 54 0 61 8 61 66 l0 54 -342 0 -343 0 -15 -32z"/>
<path d="M2420 1095 c0 -57 4 -95 10 -95 6 0 10 38 10 95 0 57 -4 95 -10 95
-6 0 -10 -38 -10 -95z"/>
<path d="M250 1090 c0 -53 4 -90 10 -90 6 0 10 37 10 90 0 53 -4 90 -10 90 -6
0 -10 -37 -10 -90z"/>
<path d="M207 962 c-23 -25 -21 -78 3 -102 18 -18 33 -19 245 -17 211 2 228 3
241 21 20 28 18 80 -4 99 -16 15 -48 17 -244 17 -205 0 -226 -2 -241 -18z"/>
<path d="M1992 968 c-7 -7 -12 -30 -12 -53 0 -23 5 -46 12 -53 9 -9 78 -12
250 -12 224 0 238 1 248 19 14 27 13 84 -2 99 -17 17 -479 17 -496 0z"/>
<path d="M1705 763 c-32 -87 -62 -162 -66 -168 -17 -18 -9 -20 61 -17 l70 4 0
169 c0 93 -2 169 -3 169 -2 0 -30 -71 -62 -157z"/>
<path d="M280 695 c0 -83 4 -135 10 -135 6 0 10 52 10 135 0 83 -4 135 -10
135 -6 0 -10 -52 -10 -135z"/>
<path d="M590 695 c0 -83 4 -135 10 -135 6 0 10 52 10 135 0 83 -4 135 -10
135 -6 0 -10 -52 -10 -135z"/>
<path d="M2084 695 c0 -77 2 -107 3 -67 2 40 2 103 0 140 -2 37 -3 4 -3 -73z"/>
<path d="M2390 695 c0 -83 4 -135 10 -135 6 0 10 52 10 135 0 83 -4 135 -10
135 -6 0 -10 -52 -10 -135z"/>
<path d="M714 655 c-10 -40 19 -75 61 -75 37 0 58 21 70 73 l7 27 -66 0 c-62
0 -66 -1 -72 -25z"/>
</g>
</svg>
