<?xml version="1.0" standalone="no"?>
<!DOCTYPE svg PUBLIC "-//W3C//DTD SVG 20010904//EN"
 "http://www.w3.org/TR/2001/REC-SVG-20010904/DTD/svg10.dtd">
<svg version="1.0" xmlns="http://www.w3.org/2000/svg"
 width="256.000000pt" height="234.000000pt" viewBox="0 0 256.000000 234.000000"
 preserveAspectRatio="xMidYMid meet">

<g transform="translate(0.000000,234.000000) scale(0.100000,-0.100000)"
fill="#000000" stroke="none">
<path d="M1170 1888 c0 -4 4 -17 9 -30 9 -23 8 -24 -48 -23 -31 0 -65 -4 -76
-9 -19 -8 -19 -9 5 -16 24 -6 22 -8 -25 -32 -57 -30 -128 -95 -150 -138 -14
-26 -14 -33 1 -72 9 -24 34 -58 54 -75 25 -22 40 -45 44 -68 4 -19 10 -35 14
-34 4 0 22 18 40 41 l32 40 0 -40 c0 -23 -4 -52 -10 -66 -14 -38 5 -33 50 12
l37 37 18 -40 18 -40 7 30 c6 24 8 27 14 13 8 -17 65 -58 82 -58 5 0 8 26 6
57 -4 86 7 94 56 41 23 -24 63 -56 90 -71 49 -27 49 -27 67 -7 10 11 26 20 37
20 10 0 18 4 18 9 0 14 -28 21 -60 14 -33 -6 -38 4 -19 38 14 27 46 37 89 28
l35 -8 -37 33 c-39 34 -51 63 -22 52 9 -3 19 -6 24 -6 5 0 23 -12 41 -27 l32
-27 -5 47 c-3 26 -20 77 -37 112 -57 116 -170 190 -306 202 -49 4 -66 11 -92
36 -18 17 -33 28 -33 25z m199 -274 c10 -37 4 -54 -20 -54 -15 0 -19 7 -19 34
0 70 21 81 39 20z m85 -114 c1 -31 -2 -35 -24 -35 -20 0 -26 6 -28 30 -2 16 2
48 9 70 l12 40 15 -35 c8 -19 15 -51 16 -70z"/>
<path d="M320 1766 c0 -24 -3 -58 -6 -75 -5 -25 -3 -31 10 -31 13 0 17 7 14
26 -3 23 2 29 34 40 33 11 40 11 63 -8 14 -11 28 -18 31 -16 7 7 -118 108
-133 108 -9 0 -13 -15 -13 -44z m51 5 c26 -21 25 -25 -7 -35 -18 -6 -22 -2
-26 24 -5 35 1 37 33 11z"/>
<path d="M2153 1722 c-27 -4 -53 -38 -53 -68 0 -11 10 -36 23 -55 22 -32 26
-34 87 -36 45 -1 58 1 43 7 -19 8 -20 12 -11 38 9 23 8 36 -8 67 -20 40 -43
53 -81 47z m56 -38 c23 -30 27 -74 9 -92 -7 -7 -24 -12 -40 -12 -30 0 -58 39
-58 83 0 51 55 64 89 21z"/>
<path d="M825 1650 c-3 -5 -1 -10 4 -10 6 0 11 5 11 10 0 6 -2 10 -4 10 -3 0
-8 -4 -11 -10z"/>
<path d="M589 1540 c8 -43 20 -81 27 -84 10 -4 114 112 114 128 0 18 -24 0
-62 -49 -48 -61 -50 -60 -63 33 -4 31 -12 52 -19 52 -10 0 -9 -18 3 -80z"/>
<path d="M848 1484 c-6 -48 -2 -54 13 -21 7 17 8 31 1 42 -8 15 -10 11 -14
-21z"/>
<path d="M2110 1345 c-16 -20 -5 -32 14 -16 8 7 25 11 38 9 18 -2 23 -9 23
-33 0 -27 -7 -34 -67 -65 -38 -19 -68 -38 -68 -41 0 -5 104 -49 116 -49 2 0 4
4 4 10 0 5 -18 15 -40 21 -22 7 -40 15 -40 19 0 4 23 17 51 30 52 25 69 44 69
78 0 43 -73 70 -100 37z"/>
<path d="M1119 1335 c-8 -7 -30 -18 -49 -23 l-35 -10 31 -1 c30 -1 85 31 73
43 -3 3 -12 -1 -20 -9z"/>
<path d="M1357 1332 c3 -8 20 -20 36 -27 29 -12 29 -13 9 -19 -12 -4 -22 -12
-22 -19 0 -8 3 -8 12 1 19 19 56 14 68 -9 13 -23 24 -20 14 4 -3 9 -16 19 -27
23 -22 7 -22 7 -2 15 20 8 20 8 0 8 -12 1 -37 9 -57 19 -29 15 -35 16 -31 4z"/>
<path d="M125 1290 c-28 -55 -29 -60 -15 -60 5 0 16 13 24 29 12 23 21 28 43
25 26 -4 20 1 -16 12 -11 4 -12 7 -3 16 15 15 15 28 2 28 -5 0 -21 -22 -35
-50z"/>
<path d="M961 1314 c0 -11 3 -14 6 -6 3 7 2 16 -1 19 -3 4 -6 -2 -5 -13z"/>
<path d="M278 1301 c-8 -13 -24 -22 -43 -22 -24 -1 -26 -3 -7 -6 20 -4 22 -9
17 -34 -10 -46 9 -34 35 21 24 50 22 80 -2 41z"/>
<path d="M1530 1316 c0 -2 7 -6 15 -10 8 -3 15 -1 15 4 0 6 -7 10 -15 10 -8 0
-15 -2 -15 -4z"/>
<path d="M1042 1278 c-21 -21 -13 -32 9 -13 17 16 25 17 50 8 26 -10 29 -10
19 3 -15 17 -61 19 -78 2z"/>
<path d="M1068 1254 c-3 -3 -4 -14 -1 -25 6 -20 37 -26 48 -9 13 21 -30 52
-47 34z"/>
<path d="M1399 1258 c-11 -37 -7 -48 15 -48 27 0 40 22 23 39 -10 10 -36 16
-38 9z"/>
<path d="M797 1091 c-79 -123 -117 -208 -117 -265 0 -67 31 -119 74 -124 34
-4 78 13 102 39 16 18 36 19 399 19 379 0 383 0 410 -22 19 -15 43 -22 73 -22
37 -1 48 4 65 26 11 15 22 48 25 76 5 60 -27 132 -114 255 -50 70 -82 100 -68
62 7 -17 -56 -85 -79 -85 -8 0 -20 14 -27 30 -13 32 -27 39 -36 16 -18 -48
-194 -122 -268 -113 -77 9 -158 47 -210 99 -27 26 -50 47 -51 46 -2 -2 -10
-20 -18 -40 -9 -21 -21 -38 -26 -38 -22 0 -82 63 -78 82 10 37 -19 16 -56 -41z"/>
<path d="M267 1062 c-15 -37 -27 -71 -27 -75 0 -5 21 -5 46 -1 41 6 46 4 51
-15 3 -11 10 -21 15 -21 5 0 6 9 3 20 -4 12 -1 27 5 35 10 12 9 15 -3 15 -11
0 -19 17 -28 55 -7 30 -18 55 -24 55 -7 0 -24 -30 -38 -68z m48 -8 c7 -39 -3
-54 -37 -54 -16 0 -16 3 0 45 9 25 19 45 23 45 4 0 10 -16 14 -36z"/>
<path d="M1925 1050 c-3 -5 -3 -10 2 -10 4 0 16 -7 26 -14 17 -13 16 -16 -13
-62 -32 -50 -36 -64 -21 -64 6 0 22 23 38 50 15 28 33 48 38 46 39 -16 45 -17
45 -9 0 4 -8 13 -17 19 -10 5 -35 20 -55 32 -23 14 -39 19 -43 12z"/>
<path d="M231 768 c1 -41 3 -54 8 -39 9 35 56 49 82 25 10 -9 21 -15 24 -13 4
5 -99 89 -109 89 -3 0 -6 -28 -5 -62z m37 30 c17 -17 15 -25 -8 -31 -16 -4
-20 0 -20 19 0 26 10 30 28 12z"/>
<path d="M490 715 c-19 -23 -5 -43 32 -47 41 -4 47 -39 8 -48 -14 -3 -20 -9
-15 -12 15 -8 54 9 61 27 9 22 -13 43 -48 47 -41 4 -46 23 -11 36 24 9 25 11
7 11 -12 1 -27 -6 -34 -14z"/>
<path d="M1692 660 c0 -14 2 -19 5 -12 2 6 2 18 0 25 -3 6 -5 1 -5 -13z"/>
<path d="M1641 644 c0 -11 3 -14 6 -6 3 7 2 16 -1 19 -3 4 -6 -2 -5 -13z"/>
<path d="M1788 653 c-15 -4 -16 -8 -7 -25 9 -16 17 -19 44 -14 56 11 89 -15
43 -34 -23 -9 -23 -9 -2 -9 33 -1 48 23 28 44 -13 13 -27 15 -55 11 -43 -7
-62 9 -27 23 23 10 7 12 -24 4z"/>
<path d="M1600 640 c0 -5 5 -10 11 -10 5 0 7 5 4 10 -3 6 -8 10 -11 10 -2 0
-4 -4 -4 -10z"/>
<path d="M701 604 c-19 -24 -19 -27 -4 -60 9 -19 20 -34 23 -34 4 0 17 12 31
27 22 26 22 26 1 9 -17 -15 -25 -17 -34 -8 -9 9 -7 17 8 34 16 19 16 20 1 9
-25 -20 -33 -6 -13 24 21 33 13 32 -13 -1z"/>
<path d="M1702 610 c0 -14 2 -19 5 -12 2 6 2 18 0 25 -3 6 -5 1 -5 -13z"/>
<path d="M1711 561 c-18 -16 -19 -20 -6 -31 8 -7 15 -19 15 -26 0 -8 6 -11 16
-7 11 4 12 9 5 16 -8 8 -6 17 7 31 16 20 16 20 -1 7 -9 -8 -21 -11 -25 -7 -4
4 2 14 12 22 11 8 15 14 9 14 -5 0 -20 -8 -32 -19z"/>
<path d="M589 542 l23 -19 -46 -13 c-53 -14 -57 -22 -21 -38 36 -17 55 -14 25
3 l-25 13 28 11 c16 6 34 11 42 11 29 0 23 17 -13 34 -37 16 -37 16 -13 -2z"/>
<path d="M1124 499 c-3 -6 -2 -15 3 -20 5 -5 9 -1 9 11 0 23 -2 24 -12 9z"/>
<path d="M1657 480 c3 -11 7 -20 9 -20 2 0 4 9 4 20 0 11 -4 20 -9 20 -5 0 -7
-9 -4 -20z"/>
<path d="M1340 480 c8 -5 20 -10 25 -10 6 0 3 5 -5 10 -8 5 -19 10 -25 10 -5
0 -3 -5 5 -10z"/>
<path d="M1731 454 c0 -11 3 -14 6 -6 3 7 2 16 -1 19 -3 4 -6 -2 -5 -13z"/>
<path d="M774 367 c-6 -32 -8 -59 -5 -61 3 -2 51 1 106 6 121 11 318 4 362
-13 25 -10 37 -10 60 0 39 18 216 25 348 13 61 -5 112 -7 115 -3 3 3 1 31 -6
61 l-12 55 -1 -48 -1 -47 -117 7 c-65 5 -140 7 -168 7 -71 -2 -252 -2 -370 0
-55 0 -144 -2 -197 -7 l-97 -7 -3 47 -3 48 -11 -58z"/>
</g>
</svg>
