<?xml version="1.0" standalone="no"?>
<!DOCTYPE svg PUBLIC "-//W3C//DTD SVG 20010904//EN"
 "http://www.w3.org/TR/2001/REC-SVG-20010904/DTD/svg10.dtd">
<svg version="1.0" xmlns="http://www.w3.org/2000/svg"
 width="256.000000pt" height="256.000000pt" viewBox="0 0 256.000000 256.000000"
 preserveAspectRatio="xMidYMid meet">

<g transform="translate(0.000000,256.000000) scale(0.100000,-0.100000)"
fill="#2091F9" stroke="none">
<path d="M805 2541 c-38 -17 -115 -91 -115 -110 0 -4 -21 -16 -47 -26 -211
-78 -387 -278 -438 -498 -8 -36 -18 -133 -21 -214 -4 -137 -6 -148 -27 -162
-45 -31 -91 -88 -121 -151 -31 -64 -31 -66 -31 -230 l0 -165 33 -67 c58 -119
167 -196 301 -214 28 -4 56 -13 62 -20 20 -24 75 -17 98 12 21 26 21 37 21
459 0 408 -1 434 -19 456 -23 29 -81 31 -110 5 -11 -10 -27 -16 -37 -14 -15 3
-17 16 -15 118 1 127 15 189 63 284 37 74 151 190 225 229 l52 28 15 -29 c22
-43 90 -99 133 -111 52 -15 854 -15 906 0 43 12 111 68 133 111 l15 29 52 -28
c118 -64 226 -198 267 -332 28 -90 32 -294 6 -299 -10 -2 -26 4 -37 14 -29 26
-87 24 -110 -5 -18 -22 -19 -48 -19 -456 0 -422 0 -433 21 -459 24 -30 78 -36
99 -10 7 8 24 14 38 12 l25 -3 -2 -118 c-1 -126 -9 -156 -60 -210 -55 -60 -85
-67 -269 -68 l-167 -1 -21 34 c-86 135 -247 158 -355 49 -93 -93 -93 -221 0
-312 105 -101 254 -88 340 31 l29 40 178 4 c227 4 267 17 365 115 94 95 110
140 115 339 l4 153 55 50 c36 33 66 74 87 117 l33 67 0 165 c0 164 0 166 -31
230 -30 63 -76 120 -121 151 -21 14 -22 25 -27 161 -3 80 -12 176 -21 214 -50
218 -229 421 -437 499 -27 10 -48 22 -48 26 0 19 -77 93 -115 110 -37 17 -75
19 -475 19 -400 0 -438 -2 -475 -19z m910 -156 c14 -13 25 -36 25 -50 0 -14
-11 -37 -25 -50 l-24 -25 -411 0 -411 0 -24 25 c-14 13 -25 36 -25 50 0 14 11
37 25 50 l24 25 411 0 411 0 24 -25z m-1345 -1236 l0 -301 -32 7 c-84 18 -154
80 -177 154 -14 48 -14 233 0 284 20 72 120 156 187 157 l22 0 0 -301z m1905
282 c51 -23 111 -89 124 -138 14 -51 14 -236 0 -284 -23 -74 -93 -136 -176
-154 l-33 -7 0 301 0 301 23 0 c12 0 40 -9 62 -19z m-720 -1156 c14 -13 25
-36 25 -50 0 -33 -42 -75 -75 -75 -33 0 -75 42 -75 75 0 33 42 75 75 75 14 0
37 -11 50 -25z"/>
<path d="M1145 1914 c-108 -23 -208 -78 -295 -160 -85 -82 -130 -150 -167
-256 -23 -63 -27 -89 -27 -198 0 -110 3 -134 26 -198 37 -101 82 -174 154
-246 72 -72 145 -117 246 -154 64 -23 88 -26 198 -26 112 0 133 3 204 28 76
27 82 28 166 17 202 -26 203 -25 200 166 -3 131 -2 142 25 213 26 67 29 88 30
195 0 100 -4 132 -23 190 -72 218 -257 385 -474 429 -94 19 -170 19 -263 0z
m226 -144 c137 -26 271 -127 333 -252 67 -134 73 -263 16 -404 -30 -74 -31
-84 -24 -162 l7 -84 -90 7 c-84 7 -95 5 -158 -20 -267 -106 -566 49 -640 332
-75 289 152 585 456 592 26 1 70 -4 100 -9z"/>
<path d="M977 1480 c-34 -27 -37 -80 -7 -110 12 -12 20 -33 20 -52 0 -83 75
-163 165 -176 47 -7 47 -7 50 -48 6 -75 39 -105 100 -90 30 8 46 36 50 90 3
41 3 41 50 48 90 13 165 93 165 176 0 19 8 40 20 52 30 30 27 83 -7 110 -37
29 -87 21 -127 -19 -25 -25 -30 -40 -34 -90 -4 -62 -18 -85 -47 -79 -13 2 -17
19 -18 80 -3 90 -23 121 -77 121 -54 0 -74 -31 -77 -121 -1 -61 -5 -78 -18
-80 -29 -6 -43 17 -47 79 -4 50 -9 65 -34 90 -40 40 -90 48 -127 19z"/>
</g>
</svg>
