<?xml version="1.0" standalone="no"?>
<!DOCTYPE svg PUBLIC "-//W3C//DTD SVG 20010904//EN"
 "http://www.w3.org/TR/2001/REC-SVG-20010904/DTD/svg10.dtd">
<svg version="1.0" xmlns="http://www.w3.org/2000/svg"
 width="256.000000pt" height="256.000000pt" viewBox="0 0 256.000000 256.000000"
 preserveAspectRatio="xMidYMid meet">

<g transform="translate(0.000000,256.000000) scale(0.100000,-0.100000)"
fill="#2091F9" stroke="none">
<path d="M805 2541 c-113 -52 -166 -187 -116 -296 23 -51 89 -111 138 -124 52
-15 854 -15 906 0 49 13 115 73 138 124 50 109 -3 244 -116 296 -37 17 -72 19
-475 19 -403 0 -438 -2 -475 -19z"/>
<path d="M449 2252 c-31 -26 -77 -71 -103 -101 -85 -101 -155 -277 -156 -390
0 -37 2 -42 18 -36 9 4 42 11 72 17 l56 11 11 59 c18 96 74 201 147 276 l65
67 -22 73 c-11 39 -23 72 -27 72 -3 0 -30 -22 -61 -48z"/>
<path d="M2023 2228 l-22 -73 65 -67 c73 -75 129 -180 147 -276 l11 -59 56
-11 c30 -6 63 -13 73 -17 15 -6 17 -1 17 36 -1 113 -64 272 -151 381 -44 55
-154 157 -169 158 -4 0 -16 -33 -27 -72z"/>
<path d="M1145 1914 c-211 -45 -396 -215 -467 -429 -19 -58 -23 -90 -23 -190
1 -104 5 -130 27 -193 36 -100 81 -172 154 -246 72 -72 144 -117 246 -154 64
-23 88 -26 198 -26 112 0 133 3 204 28 76 27 82 28 166 17 202 -26 203 -25
200 166 -3 131 -2 142 25 213 26 67 29 88 30 195 0 100 -4 132 -23 190 -72
218 -257 385 -474 429 -94 19 -170 19 -263 0z m-42 -453 c25 -24 31 -40 36
-92 6 -65 23 -88 55 -76 13 5 16 20 14 82 -1 66 1 79 20 97 27 28 77 28 104 0
19 -18 21 -31 20 -97 -2 -62 1 -77 14 -82 32 -12 49 11 55 76 5 52 11 68 36
92 39 40 89 48 126 19 34 -27 37 -80 7 -110 -12 -12 -20 -33 -20 -52 0 -48
-38 -116 -80 -144 -21 -14 -60 -28 -87 -32 l-48 -7 -2 -42 c-3 -74 -37 -104
-98 -89 -31 8 -46 35 -48 89 l-2 42 -48 7 c-27 4 -66 18 -87 32 -42 28 -80 96
-80 144 0 19 -8 40 -20 52 -30 30 -27 83 7 110 37 29 87 21 126 -19z"/>
<path d="M420 1633 c-8 -3 -22 -11 -30 -18 -8 -7 -38 -15 -67 -18 -118 -13
-231 -98 -286 -215 -32 -67 -32 -67 -32 -232 l0 -165 33 -67 c58 -119 167
-196 301 -214 28 -4 56 -13 62 -20 20 -24 75 -17 98 12 21 26 21 37 21 459 0
398 -1 434 -17 453 -19 23 -59 34 -83 25z"/>
<path d="M2083 1630 c-12 -5 -26 -18 -32 -29 -7 -13 -11 -164 -11 -449 0 -419
0 -430 21 -456 23 -29 78 -36 98 -12 6 7 34 16 62 20 134 18 243 95 301 214
l33 67 0 165 c0 165 0 165 -32 232 -55 117 -168 202 -286 215 -29 3 -59 11
-67 19 -21 18 -61 25 -87 14z"/>
<path d="M2295 566 c-68 -15 -75 -21 -75 -67 0 -70 -53 -145 -127 -183 -21
-10 -64 -17 -123 -18 l-92 -3 0 -75 0 -75 101 2 c140 4 196 26 282 112 77 77
104 137 112 249 5 81 10 78 -78 58z"/>
<path d="M1425 435 c-79 -28 -145 -124 -145 -210 0 -118 107 -225 224 -225
121 0 226 105 226 225 0 60 -22 110 -69 156 -66 67 -148 85 -236 54z"/>
</g>
</svg>
