<?xml version="1.0" standalone="no"?>
<!DOCTYPE svg PUBLIC "-//W3C//DTD SVG 20010904//EN"
 "http://www.w3.org/TR/2001/REC-SVG-20010904/DTD/svg10.dtd">
<svg version="1.0" xmlns="http://www.w3.org/2000/svg"
 width="256.000000pt" height="256.000000pt" viewBox="0 0 256.000000 256.000000"
 preserveAspectRatio="xMidYMid meet">

<g transform="translate(0.000000,256.000000) scale(0.100000,-0.100000)"
fill="#2091F9" stroke="none">
<path d="M1091 1930 c-36 -28 -68 -50 -73 -50 -4 0 -8 20 -8 45 l0 46 -127 -3
-128 -3 -5 -152 -5 -152 -132 -101 c-73 -56 -133 -105 -133 -111 0 -5 28 -52
61 -105 49 -75 66 -95 80 -91 18 5 19 -5 21 -181 1 -103 1 -211 0 -241 -1 -30
3 -60 9 -67 15 -18 459 -20 476 -3 18 18 3 39 -28 39 l-29 0 0 200 0 200 104
0 c75 0 107 4 115 14 24 28 -12 37 -140 34 l-124 -3 -3 -222 -2 -223 -165 0
-165 0 -2 258 c-3 272 -2 267 -48 248 -10 -4 -26 11 -52 52 -20 31 -39 64 -43
73 -4 11 28 41 117 109 68 52 126 99 130 104 4 6 8 73 8 149 l0 137 85 0 84 0
3 -62 c2 -34 8 -63 14 -65 6 -2 46 24 89 57 44 33 83 60 87 60 5 0 76 -52 159
-116 97 -75 155 -114 165 -110 9 3 14 12 12 20 -3 13 -323 266 -337 266 -3 0
-35 -23 -70 -50z"/>
<path d="M1110 1692 c-46 -25 -74 -81 -65 -129 14 -76 102 -122 171 -89 41 19
74 69 74 111 0 43 -35 94 -75 111 -45 18 -63 18 -105 -4z m107 -54 c47 -44 14
-128 -51 -128 -65 0 -97 71 -55 124 26 33 73 35 106 4z"/>
<path d="M1555 1671 c-136 -61 -150 -244 -27 -327 152 -103 350 65 273 231
-45 98 -151 139 -246 96z m149 -50 c64 -43 84 -122 48 -190 -62 -115 -245 -79
-259 51 -7 57 17 110 60 137 41 27 112 27 151 2z"/>
<path d="M1540 1260 c-205 -25 -310 -133 -347 -357 -13 -85 -14 -106 -3 -133
15 -37 60 -73 113 -90 25 -8 37 -17 37 -30 0 -16 -9 -19 -62 -22 -55 -3 -63
-5 -63 -23 0 -20 7 -20 415 -20 408 0 415 0 415 20 0 18 -8 20 -62 23 -54 3
-63 6 -63 22 0 14 12 23 41 32 50 15 105 64 115 102 10 43 -19 204 -51 275
-35 77 -104 142 -183 171 -48 18 -194 43 -227 39 -5 -1 -39 -5 -75 -9z m266
-64 c113 -35 178 -117 209 -261 24 -112 20 -149 -16 -179 -17 -14 -34 -26 -39
-26 -5 0 -15 -3 -24 -6 -14 -5 -15 11 -9 158 5 147 4 165 -11 181 -16 15 -45
17 -286 17 -241 0 -270 -2 -286 -17 -15 -16 -16 -34 -10 -181 6 -149 5 -164
-10 -158 -8 3 -19 6 -24 6 -5 0 -22 12 -39 26 -36 30 -40 67 -16 176 45 214
161 294 410 284 55 -3 123 -12 151 -20z m76 -261 c-1 -55 -5 -146 -8 -202 l-6
-103 -238 0 -237 0 -7 98 c-5 83 -10 282 -7 305 1 4 115 6 254 5 l252 -3 -3
-100z"/>
<path d="M50 360 c0 -5 5 -10 11 -10 5 0 7 5 4 10 -3 6 -8 10 -11 10 -2 0 -4
-4 -4 -10z"/>
<path d="M52 216 c7 -8 15 -12 17 -11 5 6 -10 25 -20 25 -5 0 -4 -6 3 -14z"/>
<path d="M55 160 c3 -5 8 -10 11 -10 2 0 4 5 4 10 0 6 -5 10 -11 10 -5 0 -7
-4 -4 -10z"/>
<path d="M40 136 c0 -2 7 -7 16 -10 8 -3 12 -2 9 4 -6 10 -25 14 -25 6z"/>
<path d="M52 61 c-11 -7 -11 -9 0 -14 9 -3 15 1 15 9 0 8 -1 14 -1 14 -1 0 -7
-4 -14 -9z"/>
</g>
</svg>
