<?xml version="1.0" standalone="no"?>
<!DOCTYPE svg PUBLIC "-//W3C//DTD SVG 20010904//EN"
 "http://www.w3.org/TR/2001/REC-SVG-20010904/DTD/svg10.dtd">
<svg version="1.0" xmlns="http://www.w3.org/2000/svg"
 width="256.000000pt" height="256.000000pt" viewBox="0 0 256.000000 256.000000"
 preserveAspectRatio="xMidYMid meet">

<g transform="translate(0.000000,256.000000) scale(0.100000,-0.100000)"
fill="#000000" stroke="none">
<path d="M1288 2253 c-2 -170 -2 -455 0 -635 l3 -328 635 0 634 0 0 635 0 635
-634 0 -635 0 -3 -307z m859 130 c-109 -2 -285 -2 -390 0 -106 1 -16 2 198 2
215 0 301 -1 192 -2z m-587 -133 c0 -124 -1 -130 -22 -140 -21 -10 -21 -10 -5
3 14 12 17 32 17 141 0 69 2 126 5 126 3 0 5 -58 5 -130z m797 -112 c-1 -46
-3 -9 -3 82 0 91 2 128 3 83 2 -46 2 -120 0 -165z m-679 75 c-16 -2 -40 -2
-55 0 -16 2 -3 4 27 4 30 0 43 -2 28 -4z m125 0 c-18 -2 -48 -2 -65 0 -18 2
-4 4 32 4 36 0 50 -2 33 -4z m225 0 c-32 -2 -84 -2 -115 0 -32 2 -6 3 57 3 63
0 89 -1 58 -3z m245 0 c-29 -2 -78 -2 -110 0 -32 2 -8 3 52 3 61 0 87 -1 58
-3z m-647 -108 c5 -12 28 -15 108 -17 l101 -2 -97 -3 c-76 -3 -98 -7 -98 -18
0 -8 -11 -25 -23 -39 l-24 -25 -27 28 c-26 28 -27 47 -3 79 13 17 56 15 63 -3z
m660 -18 l39 -4 -41 -1 c-30 -2 -43 -7 -46 -19 -4 -16 3 -18 74 -15 44 2 87 0
96 -4 9 -4 21 -8 27 -8 9 -1 8 -83 -2 -98 -2 -5 6 -8 19 -7 13 0 17 3 11 6 -7
2 -13 14 -12 26 0 21 1 21 11 -3 6 -14 12 -28 12 -32 1 -3 4 -10 9 -14 9 -9
10 -186 1 -209 -9 -23 -127 -75 -169 -75 -19 0 -40 6 -47 14 -8 7 -47 17 -86
21 -64 6 -72 9 -72 28 0 19 -1 19 -18 4 -22 -20 -73 -22 -90 -5 -16 16 -15 38
2 38 8 0 18 5 22 11 4 8 0 9 -15 4 -20 -6 -21 -3 -21 44 0 50 1 51 29 51 22 0
30 6 35 25 8 33 21 32 36 -5 19 -46 30 -51 90 -40 30 6 56 12 59 15 8 9 10 85
1 85 -4 0 -21 -7 -36 -15 -30 -15 -104 -21 -104 -7 0 4 10 12 22 17 13 6 27
26 34 50 l12 40 -3 -42 c-5 -58 15 -56 54 3 35 51 32 78 -5 43 -19 -18 -24
-19 -24 -7 0 9 -12 19 -27 24 -22 6 -24 8 -10 12 14 3 18 10 14 28 -6 36 28
59 59 40 11 -8 39 -16 60 -19z m-796 -2 c-14 -8 -29 -14 -35 -14 -5 0 1 6 15
14 14 8 30 14 35 14 6 0 -1 -6 -15 -14z m636 -12 c5 -19 1 -37 -15 -63 -12
-19 -29 -52 -38 -72 -9 -21 -22 -38 -29 -38 -10 0 -7 17 11 65 14 36 21 65 16
65 -12 0 -51 -49 -51 -63 0 -13 -50 -67 -62 -67 -4 0 -3 9 4 20 7 11 18 20 25
20 16 0 18 76 3 85 -19 12 0 24 31 20 45 -6 60 3 53 31 -5 21 -3 24 20 24 20
0 27 -6 32 -27z m-169 10 c-20 -2 -52 -2 -70 0 -17 2 0 4 38 4 39 0 53 -2 32
-4z m440 -19 c-3 -3 -12 -4 -19 -1 -8 3 -5 6 6 6 11 1 17 -2 13 -5z m-442 -34
c15 0 28 -27 19 -42 -3 -5 -14 -2 -26 9 -15 13 -19 14 -16 3 2 -8 6 -17 9 -20
4 -3 9 -16 10 -30 3 -20 -1 -26 -19 -28 -25 -4 -36 -22 -61 -96 -13 -36 -24
-52 -40 -56 -32 -7 -26 -23 15 -37 33 -12 36 -11 41 7 3 11 9 20 13 20 5 0 13
12 18 28 10 26 10 26 11 -11 1 -21 6 -47 11 -58 10 -18 4 -24 -22 -20 -4 0
-51 3 -103 6 -52 2 -104 9 -116 16 -21 11 -22 10 -17 -45 4 -52 3 -55 -12 -41
-24 22 -31 19 -25 -12 4 -23 4 -24 -4 -8 -5 11 -15 48 -22 83 -12 61 -12 62
-45 62 -32 0 -33 -2 -45 -57 -7 -32 -16 -62 -21 -68 -7 -8 -3 57 7 108 2 9 -2
17 -9 17 -8 0 -20 -33 -31 -80 -10 -45 -22 -83 -26 -86 -5 -3 -5 26 -1 63 10
101 8 137 -17 251 -12 57 -20 110 -17 118 7 18 51 18 70 -1 19 -20 32 -120 18
-149 -7 -17 -7 -30 2 -47 10 -20 20 -24 69 -27 l57 -3 0 -40 0 -40 40 22 c42
24 47 37 29 88 -10 27 -24 36 -51 32 -21 -3 -4 18 32 42 29 19 65 30 124 38
l84 12 6 38 c6 36 37 70 44 48 2 -5 10 -9 17 -9z m-625 -14 c0 -2 -7 -7 -16
-10 -8 -3 -12 -2 -9 4 6 10 25 14 25 6z m376 -64 c-8 -13 -46 -22 -46 -11 0
10 42 30 49 23 1 -1 0 -7 -3 -12z m827 -106 c14 5 17 -1 17 -35 0 -23 -4 -41
-10 -41 -5 0 -10 14 -10 30 0 20 -5 30 -15 30 -8 0 -15 8 -15 18 0 12 2 14 8
4 5 -7 16 -10 25 -6z m-583 -6 c0 -5 -5 -10 -11 -10 -5 0 -7 5 -4 10 3 6 8 10
11 10 2 0 4 -4 4 -10z m598 -157 c2 -19 -1 -33 -7 -33 -6 0 -11 11 -11 25 0
16 -6 25 -15 25 -8 0 -15 4 -15 9 0 4 10 8 23 7 17 -1 23 -8 25 -33z m-128
-117 c0 -2 -7 -7 -16 -10 -8 -3 -12 -2 -9 4 6 10 25 14 25 6z m-417 -83 c-40
-2 -107 -2 -150 0 -43 1 -10 3 72 3 83 0 118 -2 78 -3z m-206 -40 c-2 -5 4
-16 14 -25 12 -12 19 -13 22 -5 2 7 8 9 12 5 11 -10 -28 -72 -48 -76 -10 -2
-16 2 -15 9 2 9 -8 12 -34 10 -31 -2 -38 1 -39 16 -1 16 -2 17 -6 1 -6 -23
-63 -25 -63 -3 0 8 -4 15 -10 15 -5 0 -10 -7 -10 -15 0 -8 -5 -15 -11 -15 -7
0 -10 14 -7 35 2 19 -1 37 -7 39 -5 3 4 2 20 -1 17 -3 32 -9 35 -12 3 -3 28
-6 57 -6 38 0 55 4 65 17 12 17 33 26 25 11z m408 -33 c4 0 4 4 1 9 -4 5 3 7
13 4 13 -3 20 -16 23 -38 2 -19 1 -33 -2 -32 -3 1 -15 -4 -27 -11 -21 -12 -27
-9 -24 11 1 8 -41 10 -163 8 -54 -1 -83 3 -89 11 -6 9 -7 7 -3 -6 5 -14 3 -17
-11 -11 -10 4 -28 7 -41 6 -26 -1 -39 23 -23 43 6 7 7 17 3 21 -4 5 0 4 8 0
24 -14 233 -12 248 2 10 9 20 9 47 -3 19 -8 37 -14 40 -14z m56 -17 c-12 -20
-14 -14 -5 12 4 9 9 14 11 11 3 -2 0 -13 -6 -23z m-406 -33 c3 -5 -1 -10 -10
-10 -9 0 -13 5 -10 10 3 6 8 10 10 10 2 0 7 -4 10 -10z m-136 -14 c10 -12 8
-13 -8 -9 -12 3 -21 1 -21 -5 0 -6 10 -13 23 -15 12 -2 -4 -5 -36 -6 -55 -1
-57 0 -45 19 7 11 16 20 21 20 4 0 5 -4 2 -10 -10 -16 21 -12 35 5 15 18 15
18 29 1z m328 -10 c-3 -7 4 -12 14 -12 12 0 18 5 15 13 -4 9 4 13 20 13 20 0
25 -4 20 -16 -3 -8 -2 -12 4 -9 6 3 10 1 10 -4 0 -13 -88 -12 -96 0 -2 5 -12
6 -22 3 -14 -5 -15 -4 -2 5 8 6 11 11 7 11 -5 0 -6 4 -2 10 8 13 37 0 32 -14z
m-246 -6 c15 9 19 7 19 -5 0 -25 -54 -16 -58 10 -2 18 -2 19 8 2 9 -13 15 -15
31 -7z m130 3 c13 -15 12 -15 -8 -4 -24 12 -29 21 -14 21 5 0 15 -7 22 -17z
m-36 -13 c-3 -5 -15 -10 -26 -10 -10 0 -19 5 -19 10 0 6 12 10 26 10 14 0 23
-4 19 -10z m285 0 c0 -5 -5 -10 -11 -10 -5 0 -7 5 -4 10 3 6 8 10 11 10 2 0 4
-4 4 -10z"/>
<path d="M1875 1390 c-3 -5 -1 -10 4 -10 6 0 11 5 11 10 0 6 -2 10 -4 10 -3 0
-8 -4 -11 -10z"/>
<path d="M614 2226 c-14 -11 -19 -28 -21 -72 -1 -49 -5 -60 -22 -68 -36 -16
-23 -23 42 -25 42 -1 66 -6 73 -16 6 -9 17 -57 24 -109 16 -118 19 -124 63
-108 18 7 43 12 54 12 12 0 23 5 25 11 2 7 24 6 67 -6 35 -9 67 -13 71 -8 7 8
30 84 30 98 0 4 -18 5 -40 3 -28 -2 -40 0 -40 9 0 7 5 13 10 13 30 0 -7 118
-40 127 -33 9 -19 83 16 83 8 0 12 5 9 10 -11 18 -61 11 -108 -16 -43 -23 -45
-27 -35 -50 6 -13 18 -24 26 -24 11 0 13 -9 8 -40 -5 -35 -3 -42 14 -48 19 -7
18 -10 -15 -42 -19 -18 -37 -31 -41 -28 -3 4 4 11 15 18 28 14 27 28 -3 40
-13 5 -39 30 -56 56 -30 42 -32 51 -27 100 5 49 3 55 -20 74 -30 24 -52 25
-79 6z"/>
<path d="M320 2164 c-47 -24 -79 -43 -71 -43 21 -1 55 -51 62 -91 l6 -35 2 38
c1 32 4 37 26 37 28 0 29 -2 15 -49 -6 -23 -6 -39 0 -46 16 -19 1 -44 -39 -65
-60 -30 -65 -40 -57 -129 6 -78 6 -79 -21 -100 l-28 -20 50 -3 c104 -5 120 -5
131 -1 7 3 12 35 13 85 1 44 4 85 7 90 3 4 23 17 44 28 38 19 56 49 51 82 -1
9 2 19 7 22 6 4 6 22 -1 48 -8 31 -7 43 1 46 20 6 13 21 -17 36 -26 14 -30 14
-41 1 -18 -21 -40 -18 -40 5 0 12 -9 24 -21 28 -18 7 -17 9 15 19 33 10 36 9
36 -9 0 -10 5 -16 10 -13 18 11 11 64 -9 75 -28 14 -36 12 -131 -36z m103 -1
c-7 -2 -21 -2 -30 0 -10 3 -4 5 12 5 17 0 24 -2 18 -5z m77 -153 c0 -5 -9 -10
-21 -10 -11 0 -17 5 -14 10 3 6 13 10 21 10 8 0 14 -4 14 -10z m-164 -328
c-14 -20 -15 -11 -8 53 l7 60 5 -50 c3 -27 1 -56 -4 -63z"/>
<path d="M788 2003 c7 -3 16 -2 19 1 4 3 -2 6 -13 5 -11 0 -14 -3 -6 -6z"/>
<path d="M775 1810 c-41 -11 -82 -15 -131 -11 l-71 6 -12 -109 c-12 -113 -9
-157 5 -64 4 29 8 58 9 63 1 6 3 25 3 43 2 31 3 32 46 32 41 0 82 -23 56 -32
-11 -3 -25 -78 -15 -78 3 0 17 12 30 26 l25 27 1 -39 c0 -21 4 -59 9 -84 7
-35 8 -25 4 42 -3 60 -1 89 7 94 9 5 10 -1 6 -22 -3 -16 -1 -53 5 -81 10 -51
12 -53 44 -53 27 0 34 4 34 20 0 11 -6 20 -13 20 -7 0 -18 9 -25 21 -12 19
-11 20 7 14 17 -5 21 -2 22 17 1 13 3 30 4 38 1 8 3 24 5 35 1 11 8 -7 15 -40
16 -76 17 -33 2 60 l-12 70 -60 -15z"/>
<path d="M1062 1762 c2 -9 16 -17 36 -19 43 -5 41 9 -3 23 -31 10 -36 9 -33
-4z"/>
<path d="M1010 1705 c1 -26 2 -28 11 -12 8 14 8 22 0 30 -8 8 -11 3 -11 -18z"/>
<path d="M1030 1691 c0 -5 6 -11 13 -13 17 -7 38 2 31 13 -7 12 -44 12 -44 0z"/>
<path d="M881 1417 c-1 -14 -6 -17 -21 -12 -24 8 -39 -20 -20 -38 10 -10 12
-8 7 6 -4 11 -1 17 8 17 8 0 15 -6 15 -12 0 -7 5 -5 11 5 6 10 8 25 6 35 -4
15 -5 15 -6 -1z"/>
<path d="M286 1405 c-9 -25 -7 -43 3 -27 10 17 21 17 31 2 5 -7 9 -2 12 14 5
26 -6 36 -15 14 -4 -10 -8 -10 -15 0 -7 11 -10 10 -16 -3z"/>
<path d="M347 1403 c-14 -13 -6 -33 13 -33 13 0 20 7 20 20 0 19 -20 27 -33
13z m23 -13 c0 -5 -5 -10 -11 -10 -5 0 -7 5 -4 10 3 6 8 10 11 10 2 0 4 -4 4
-10z"/>
<path d="M391 1388 c1 -17 2 -19 6 -5 2 9 8 17 13 17 5 0 11 -8 13 -17 4 -17
5 -17 6 0 0 9 6 17 11 17 6 0 10 -8 11 -17 0 -15 2 -15 9 2 7 17 9 17 9 3 1
-25 41 -24 41 1 0 16 -9 19 -60 20 -56 1 -60 0 -59 -21z m109 2 c0 -5 -5 -10
-11 -10 -5 0 -7 5 -4 10 3 6 8 10 11 10 2 0 4 -4 4 -10z"/>
<path d="M523 1392 c-4 -9 -1 -18 6 -20 11 -4 11 -6 0 -13 -11 -7 -11 -9 -1
-9 7 0 17 10 22 23 5 12 9 16 9 10 1 -7 8 -13 16 -13 9 0 12 6 8 17 -4 11 -3
14 5 9 7 -4 12 -3 12 2 0 17 -71 12 -77 -6z"/>
<path d="M627 1403 c-13 -13 -7 -33 11 -32 11 0 12 2 4 6 -10 4 -10 8 -1 19
11 14 -1 20 -14 7z"/>
<path d="M667 1403 c-18 -17 -4 -31 33 -31 35 -1 40 2 39 21 -1 17 -2 18 -6 5
-2 -10 -8 -18 -13 -18 -5 0 -7 8 -4 18 5 13 4 14 -4 3 -7 -9 -12 -10 -16 -2
-8 12 -19 14 -29 4z"/>
<path d="M751 1388 c1 -17 2 -19 6 -5 2 9 8 17 13 17 5 0 7 -6 4 -13 -3 -8 5
-13 20 -15 19 -1 24 3 23 18 -1 11 -5 20 -10 20 -5 0 -7 -7 -3 -15 3 -8 1 -15
-4 -15 -6 0 -10 7 -10 15 0 8 -9 15 -20 15 -14 0 -20 -6 -19 -22z"/>
<path d="M897 1396 c-4 -10 -7 -19 -7 -20 0 -1 9 -2 20 -3 12 -1 20 5 21 15 0
14 2 13 9 -3 8 -19 9 -19 9 3 1 13 -5 22 -14 22 -8 0 -15 -8 -16 -17 0 -16 -1
-16 -8 1 -7 18 -8 18 -14 2z"/>
<path d="M963 1393 c-4 -10 -1 -19 6 -21 11 -4 11 -6 0 -13 -11 -7 -11 -9 2
-9 17 0 29 19 29 46 0 20 -29 18 -37 -3z m27 -3 c0 -5 -4 -10 -10 -10 -5 0
-10 5 -10 10 0 6 5 10 10 10 6 0 10 -4 10 -10z"/>
<path d="M1970 920 c-12 -16 -30 -30 -40 -30 -11 0 -35 -14 -54 -31 l-35 -31
-89 7 c-115 9 -128 5 -130 -43 -1 -28 1 -34 9 -22 8 11 9 11 7 1 -2 -7 -26
-22 -52 -32 -71 -26 -98 -55 -90 -94 9 -40 42 -105 54 -105 5 0 10 -33 12 -72
l3 -73 143 -2 c86 -1 148 -6 156 -12 17 -14 109 -7 114 8 2 6 24 11 48 11 24
0 44 4 44 10 0 5 -13 38 -29 72 -16 35 -32 82 -36 106 -7 42 -7 42 22 40 16
-1 34 1 40 5 8 5 19 -6 31 -30 23 -45 47 -206 32 -211 -16 -6 -12 -22 5 -22 8
0 15 7 15 15 0 11 19 15 93 17 l92 3 -3 64 c-3 53 1 73 21 110 39 72 43 105
15 130 -12 12 -43 28 -67 35 l-45 13 3 47 3 47 -104 -7 c-91 -6 -102 -5 -90 8
16 20 5 76 -19 88 -31 17 -57 11 -79 -20z m59 -9 c8 -5 12 -19 9 -34 -4 -21 1
-29 26 -41 28 -14 30 -18 27 -63 -1 -26 -8 -51 -13 -54 -18 -12 0 -41 21 -34
12 3 21 0 25 -10 4 -13 -1 -14 -37 -9 -23 4 -44 8 -46 10 -2 2 -11 -1 -20 -6
-14 -7 -17 -3 -19 22 -1 17 2 36 8 43 7 8 4 17 -10 30 -20 18 -27 59 -11 69 4
3 6 17 4 31 -9 45 7 64 36 46z m-169 -125 c0 -11 4 -28 10 -36 7 -11 11 -8 20
15 6 16 17 33 23 37 20 13 47 9 47 -7 0 -8 -4 -15 -10 -15 -13 0 -5 -127 10
-145 8 -9 5 -35 -11 -100 -18 -72 -20 -91 -10 -107 16 -27 3 -38 -15 -14 -8
11 -14 37 -14 59 0 22 -4 36 -10 32 -15 -10 -23 -71 -11 -94 15 -27 -5 -30
-25 -4 -21 29 -18 161 5 199 18 30 18 31 -1 43 -16 10 -24 8 -48 -9 -74 -53
-102 7 -53 110 18 38 35 60 48 62 31 6 45 -2 45 -26z"/>
<path d="M2051 803 c-1 -6 -4 -20 -7 -30 -5 -17 -5 -17 6 0 6 10 9 23 6 30 -3
9 -5 9 -5 0z"/>
<path d="M785 902 c-113 -52 -115 -54 -75 -104 26 -32 30 -42 19 -49 -19 -12
-4 -11 40 2 45 13 86 77 82 127 -2 27 1 32 18 32 12 0 21 -6 21 -15 0 -8 5
-15 11 -15 5 0 8 -4 5 -9 -3 -5 0 -13 7 -19 9 -8 12 -1 14 26 4 73 -26 78
-142 24z"/>
<path d="M322 884 c-67 -33 -90 -49 -84 -57 10 -12 15 -40 13 -65 0 -7 -12
-17 -25 -23 -15 -7 -22 -17 -19 -26 4 -11 -1 -13 -23 -11 -22 2 -29 -2 -35
-22 -5 -18 -7 -9 -8 32 -1 31 4 69 9 84 6 15 9 28 7 30 -2 2 -38 -13 -80 -33
l-77 -36 0 -92 0 -91 55 -57 c30 -31 61 -57 70 -57 8 0 15 -7 15 -15 0 -8 4
-15 10 -15 6 0 5 -10 -2 -25 -9 -21 -8 -28 8 -46 39 -44 91 -60 268 -84 273
-37 637 -2 734 71 37 29 40 44 11 70 -20 18 -21 26 -16 124 3 58 9 118 13 133
5 23 3 29 -14 34 -21 5 -34 29 -52 101 -16 62 -45 73 -110 42 -41 -19 -48 -26
-40 -41 6 -10 10 -26 10 -37 0 -23 -43 -62 -69 -62 -22 0 -37 -17 -43 -45 -2
-11 -13 -21 -24 -23 -20 -3 -21 -6 -11 -38 7 -23 13 -30 19 -22 5 9 8 5 9 -12
0 -21 3 -19 19 17 18 41 20 42 78 49 l59 6 9 46 c11 54 25 62 48 27 16 -24 16
-29 3 -43 -8 -10 -18 -27 -21 -39 -6 -19 -12 -21 -65 -16 -56 5 -60 4 -77 -23
-13 -19 -20 -52 -22 -100 -4 -71 -5 -73 -37 -88 -43 -21 -52 -20 -32 2 9 10
19 37 23 61 l7 44 -32 -5 c-26 -4 -34 -1 -41 16 -6 15 -9 16 -9 5 -1 -13 -14
-17 -67 -18 l-65 -1 6 52 c3 29 2 66 -3 83 -7 25 -15 31 -53 38 -58 12 -81 29
-48 37 13 3 25 14 27 23 3 13 -4 17 -30 17 -28 0 -35 5 -45 30 -6 17 -18 30
-26 30 -13 0 -13 -6 -2 -42 7 -24 16 -51 20 -60 4 -11 3 -18 -4 -18 -6 0 -11
6 -11 13 0 6 -11 38 -24 70 -28 67 -25 92 15 109 16 7 28 17 26 23 -8 22 -57
11 -145 -31z m718 -115 c0 -10 -4 -19 -10 -19 -13 0 -30 34 -30 62 l1 23 19
-24 c11 -13 20 -32 20 -42z m-698 -7 c-5 -52 4 -66 51 -77 18 -5 27 -3 27 5 0
10 3 10 15 0 11 -9 13 -16 5 -24 -5 -5 -10 -20 -10 -33 0 -20 5 -23 40 -23 33
0 40 -3 40 -20 0 -16 -7 -20 -35 -20 -28 0 -37 5 -50 29 -11 22 -24 31 -57 37
-24 5 -53 7 -65 6 -25 -3 -33 22 -10 32 6 3 3 4 -9 1 -13 -3 -28 3 -44 20 -23
24 -23 26 -5 39 17 12 21 12 31 -2 6 -8 16 -12 22 -8 8 5 10 2 6 -8 -3 -9 -1
-16 5 -16 6 0 11 -7 11 -15 0 -8 4 -15 8 -15 5 0 2 27 -7 60 -14 54 -14 62 -1
70 30 19 37 11 32 -38z m570 -87 c-5 -24 -2 -21 -29 -29 -18 -6 -23 -3 -23 11
0 11 6 25 12 31 18 18 44 10 40 -13z m38 -82 c-13 -3 -30 -12 -38 -21 -11 -15
-12 -14 -2 6 7 15 19 22 38 21 26 -2 26 -2 2 -6z m80 -13 c0 -17 -3 -18 -25
-8 -14 6 -25 15 -25 20 0 4 11 8 25 8 18 0 25 -5 25 -20z m-673 -102 c-3 -8
-6 -5 -6 6 -1 11 2 17 5 13 3 -3 4 -12 1 -19z m-170 -25 c-3 -10 -5 -4 -5 12
0 17 2 24 5 18 2 -7 2 -21 0 -30z m311 25 c17 -17 15 -28 -3 -23 -8 3 -22 7
-31 10 -17 5 -10 25 10 25 6 0 17 -5 24 -12z m632 -9 c0 -17 -4 -20 -22 -15
-13 3 -32 6 -43 7 -14 0 -9 5 15 14 48 18 50 18 50 -6z m-696 -55 c23 -9 20
-23 -4 -17 -11 3 -20 9 -20 14 0 11 3 11 24 3z m502 -19 c-25 -19 -37 -19 -30
0 4 8 16 15 28 15 21 -1 21 -1 2 -15z"/>
<path d="M447 853 c-12 -11 -8 -23 8 -23 8 0 15 7 15 15 0 16 -12 20 -23 8z"/>
<path d="M753 723 c-32 -4 -61 -28 -49 -40 3 -4 12 -1 18 5 7 7 25 12 40 12
18 0 28 5 28 15 0 8 -1 14 -2 13 -2 0 -17 -3 -35 -5z"/>
<path d="M2083 460 c2 -19 7 -43 12 -52 5 -13 3 -18 -9 -18 -19 0 -21 -16 -4
-26 33 -21 40 62 9 112 -10 16 -11 14 -8 -16z"/>
<path d="M1815 149 c-4 -6 -5 -12 -2 -15 2 -3 7 2 10 11 7 17 1 20 -8 4z"/>
<path d="M2130 147 c0 -9 -3 -24 -6 -34 -5 -16 -4 -16 7 2 12 19 12 19 20 0 7
-18 8 -18 8 -2 1 10 -6 25 -14 33 -13 14 -15 14 -15 1z"/>
<path d="M1480 127 c0 -15 4 -27 9 -27 6 0 8 10 6 21 -6 33 -15 36 -15 6z"/>
<path d="M1641 134 c0 -11 3 -14 6 -6 3 7 2 16 -1 19 -3 4 -6 -2 -5 -13z"/>
<path d="M2048 139 c-22 -12 -24 -39 -3 -39 16 0 29 22 23 39 -2 6 -9 6 -20 0z
m12 -19 c0 -5 -4 -10 -10 -10 -5 0 -10 5 -10 10 0 6 5 10 10 10 6 0 10 -4 10
-10z"/>
<path d="M2102 125 c0 -16 2 -22 5 -12 2 9 2 23 0 30 -3 6 -5 -1 -5 -18z"/>
<path d="M1521 118 c1 -17 2 -19 6 -5 2 9 8 17 13 17 5 0 7 -8 4 -17 -4 -14
-3 -14 7 2 12 19 12 19 20 0 7 -19 8 -18 8 3 1 18 -4 22 -29 22 -25 0 -30 -4
-29 -22z"/>
<path d="M1597 133 c-4 -3 -7 -12 -7 -20 0 -17 26 -17 33 1 8 21 -11 35 -26
19z m23 -7 c0 -3 -4 -8 -10 -11 -5 -3 -10 -1 -10 4 0 6 5 11 10 11 6 0 10 -2
10 -4z"/>
<path d="M1698 133 c19 -8 14 -26 -5 -18 -14 5 -15 3 -6 -6 6 -6 16 -8 22 -5
17 11 13 36 -6 35 -11 0 -13 -3 -5 -6z"/>
<path d="M1731 118 c1 -17 2 -19 6 -5 2 9 8 17 13 17 5 0 7 -8 4 -17 -5 -15
-4 -16 5 -3 16 22 13 30 -9 30 -14 0 -20 -6 -19 -22z"/>
<path d="M1830 129 c0 -5 5 -7 10 -4 6 3 10 2 10 -4 0 -5 -5 -12 -10 -14 -6
-3 -5 -4 2 -3 19 4 22 36 4 36 -9 0 -16 -5 -16 -11z"/>
<path d="M1877 133 c-11 -10 -8 -33 4 -33 5 0 7 5 3 11 -3 6 0 15 7 20 8 5 9
9 3 9 -6 0 -14 -3 -17 -7z"/>
<path d="M1911 123 c-1 -14 5 -23 14 -23 8 0 15 5 15 11 0 5 -4 8 -9 4 -5 -3
-12 3 -14 12 -4 14 -5 13 -6 -4z"/>
<path d="M1963 120 c1 -11 5 -20 9 -20 3 0 6 9 5 20 -1 11 -5 20 -9 20 -3 0
-6 -9 -5 -20z"/>
<path d="M2177 133 c-10 -10 -8 -33 3 -33 5 0 6 7 3 17 -4 11 -3 14 5 9 7 -4
12 -2 12 3 0 12 -13 14 -23 4z"/>
<path d="M2213 125 c-3 -9 -3 -18 -1 -21 3 -3 8 4 11 16 6 23 -1 27 -10 5z"/>
<path d="M2243 125 c-3 -9 -3 -18 0 -22 10 -10 37 6 37 22 0 20 -29 20 -37 0z
m27 -5 c0 -5 -4 -10 -10 -10 -5 0 -10 5 -10 10 0 6 5 10 10 10 6 0 10 -4 10
-10z"/>
<path d="M2288 116 c-4 -18 -1 -22 12 -19 9 2 21 12 27 22 9 14 7 17 -12 19
-17 1 -24 -5 -27 -22z m32 10 c0 -3 -4 -8 -10 -11 -5 -3 -10 -1 -10 4 0 6 5
11 10 11 6 0 10 -2 10 -4z"/>
<path d="M631 114 c0 -11 3 -14 6 -6 3 7 2 16 -1 19 -3 4 -6 -2 -5 -13z"/>
<path d="M1990 115 c0 -8 4 -15 10 -15 5 0 7 7 4 15 -4 8 -8 15 -10 15 -2 0
-4 -7 -4 -15z"/>
<path d="M2337 100 c-3 -11 -3 -20 -1 -20 2 0 8 9 14 20 6 11 7 20 2 20 -6 0
-12 -9 -15 -20z"/>
</g>
</svg>
