<?xml version="1.0" standalone="no"?>
<!DOCTYPE svg PUBLIC "-//W3C//DTD SVG 20010904//EN"
 "http://www.w3.org/TR/2001/REC-SVG-20010904/DTD/svg10.dtd">
<svg version="1.0" xmlns="http://www.w3.org/2000/svg"
 width="256.000000pt" height="256.000000pt" viewBox="0 0 256.000000 256.000000"
 preserveAspectRatio="xMidYMid meet">

<g transform="translate(0.000000,256.000000) scale(0.100000,-0.100000)"
fill="#000000" stroke="none">
<path d="M1119 2123 c-13 -16 -12 -17 4 -4 9 7 17 15 17 17 0 8 -8 3 -21 -13z"/>
<path d="M1183 2100 c-15 -6 -23 -18 -23 -32 0 -13 -3 -33 -6 -45 -5 -17 -2
-23 10 -23 9 0 16 -4 16 -10 0 -16 58 -12 79 6 16 14 17 21 7 56 -17 55 -37
66 -83 48z m18 -55 c-1 -15 -24 -12 -29 3 -3 9 2 13 12 10 10 -1 17 -7 17 -13z
m49 0 c0 -8 -7 -15 -15 -15 -8 0 -15 -4 -15 -10 0 -5 -5 -10 -10 -10 -6 0 -3
11 6 25 18 28 34 33 34 10z"/>
<path d="M1865 2075 c-56 -19 -55 -51 1 -40 26 4 39 2 52 -11 16 -17 16 -18 0
-11 -13 5 -18 1 -18 -12 0 -25 -10 -32 -31 -20 -15 8 -17 6 -12 -8 3 -10 14
-26 24 -35 16 -16 18 -15 33 17 9 19 22 34 29 32 6 -1 13 9 15 23 2 14 8 31
14 37 30 37 -34 54 -107 28z"/>
<path d="M1294 1958 l-19 -23 23 19 c21 18 27 26 19 26 -2 0 -12 -10 -23 -22z"/>
<path d="M1950 1936 c0 -2 8 -10 18 -17 15 -13 16 -12 3 4 -13 16 -21 21 -21
13z"/>
<path d="M800 1920 c-9 -6 -10 -10 -3 -10 6 0 15 5 18 10 8 12 4 12 -15 0z"/>
<path d="M600 1876 c0 -2 8 -10 18 -17 15 -13 16 -12 3 4 -13 16 -21 21 -21
13z"/>
<path d="M1855 1850 c10 -16 45 -32 45 -20 0 5 -7 10 -15 10 -8 0 -15 5 -15
10 0 6 -5 10 -11 10 -5 0 -7 -4 -4 -10z"/>
<path d="M1645 1805 c2 -22 4 -43 4 -47 1 -3 19 -4 41 -1 53 7 56 -20 5 -37
-30 -10 -35 -15 -29 -33 4 -12 7 -23 8 -24 1 -2 95 -5 117 -4 15 1 15 9 2 88
-7 48 -16 89 -19 92 -3 3 -34 6 -69 6 l-64 0 4 -40z"/>
<path d="M1956 1794 c-10 -25 -7 -31 13 -37 12 -3 22 1 25 10 8 21 8 21 -13
32 -15 8 -20 7 -25 -5z"/>
<path d="M1921 1783 c7 -12 15 -20 18 -17 3 2 -3 12 -13 22 -17 16 -18 16 -5
-5z"/>
<path d="M1022 1758 c-20 -20 -14 -53 18 -83 l30 -29 0 27 c0 14 4 28 9 31 5
4 6 18 2 34 -8 30 -38 41 -59 20z"/>
<path d="M1100 1737 c0 -18 -4 -37 -10 -43 -5 -5 -7 -20 -3 -32 6 -23 6 -23
39 9 47 45 42 99 -8 99 -14 0 -18 -8 -18 -33z"/>
<path d="M2096 1743 c-6 -14 -5 -15 5 -6 7 7 10 15 7 18 -3 3 -9 -2 -12 -12z"/>
<path d="M738 1715 c-8 -18 -8 -28 0 -38 8 -10 6 -20 -8 -42 -11 -17 -20 -38
-20 -47 0 -24 -38 -48 -75 -48 -51 0 -78 -38 -83 -113 -3 -68 16 -115 59 -137
24 -13 24 -17 2 147 -5 39 -3 43 27 58 17 9 44 16 58 15 43 -3 52 -1 48 13
-13 41 -16 68 -6 62 6 -3 10 4 11 17 0 22 1 22 9 3 8 -19 8 -19 18 5 9 21 11
22 12 5 0 -17 2 -17 10 -5 5 8 10 11 10 6 0 -6 5 -5 12 2 21 21 38 13 38 -18
0 -32 -28 -73 -43 -63 -9 5 -27 -14 -27 -29 0 -3 14 -13 30 -22 29 -14 30 -14
30 7 0 12 9 39 20 60 11 20 20 44 20 53 0 9 5 12 13 8 6 -4 -4 9 -22 29 -19
21 -43 37 -53 37 -9 0 -24 14 -33 30 -19 36 -42 39 -57 5z"/>
<path d="M1950 1736 c0 -2 7 -9 15 -16 13 -11 14 -10 9 4 -5 14 -24 23 -24 12z"/>
<path d="M920 1630 c0 -11 2 -20 4 -20 2 0 6 9 9 20 3 11 1 20 -4 20 -5 0 -9
-9 -9 -20z"/>
<path d="M1272 1630 c0 -14 2 -19 5 -12 2 6 2 18 0 25 -3 6 -5 1 -5 -13z"/>
<path d="M1595 1634 c-63 -9 -115 -35 -121 -60 -9 -36 2 -91 29 -146 l24 -48
-30 -66 c-23 -54 -26 -68 -15 -75 23 -15 44 -10 68 16 13 14 28 25 34 25 6 0
3 -5 -6 -11 -27 -15 -20 -112 9 -123 12 -5 14 4 11 53 -2 36 1 57 7 55 6 -2
21 6 34 17 22 18 24 23 13 51 -10 26 -8 35 15 71 53 83 59 87 134 87 76 0 99
14 99 58 0 21 -11 35 -51 62 -49 33 -57 35 -138 36 -47 1 -99 0 -116 -2z m25
-78 c0 -2 -8 -10 -17 -17 -16 -13 -17 -12 -4 4 13 16 21 21 21 13z m10 -229
c0 -2 -10 -12 -22 -23 l-23 -19 19 23 c18 21 26 27 26 19z"/>
<path d="M1965 1620 c10 -11 20 -20 23 -20 3 0 -3 9 -13 20 -10 11 -20 20 -23
20 -3 0 3 -9 13 -20z"/>
<path d="M943 1615 c-3 -9 -3 -18 -1 -21 3 -3 8 4 11 16 6 23 -1 27 -10 5z"/>
<path d="M2026 1615 c-11 -8 -15 -15 -9 -15 6 0 16 7 23 15 16 19 11 19 -14 0z"/>
<path d="M805 1579 c-11 -16 -1 -19 13 -3 7 8 8 14 3 14 -5 0 -13 -5 -16 -11z"/>
<path d="M896 1434 c-4 -14 -5 -29 -2 -31 3 -3 8 7 12 21 3 15 4 29 1 32 -2 3
-8 -7 -11 -22z"/>
<path d="M830 1356 c0 -2 7 -7 16 -10 8 -3 12 -2 9 4 -6 10 -25 14 -25 6z"/>
<path d="M2157 1343 c-5 -7 -17 -13 -28 -13 -15 0 -18 -5 -15 -22 3 -13 8 -54
11 -91 9 -93 28 -83 38 19 8 90 6 126 -6 107z"/>
<path d="M870 1326 c0 -2 8 -10 18 -17 15 -13 16 -12 3 4 -13 16 -21 21 -21
13z"/>
<path d="M1362 1285 c5 -22 8 -56 6 -76 -3 -34 -2 -36 19 -26 18 8 22 19 25
72 l3 63 -31 4 -31 4 9 -41z"/>
<path d="M1885 1293 c2 -16 7 -54 10 -85 4 -32 11 -58 16 -58 13 0 17 14 23
98 l5 72 -29 0 c-27 0 -29 -3 -25 -27z"/>
<path d="M1166 1241 c-4 -5 3 -7 14 -4 23 6 26 13 6 13 -8 0 -17 -4 -20 -9z"/>
<path d="M1430 1201 c0 -6 4 -13 10 -16 6 -3 7 1 4 9 -7 18 -14 21 -14 7z"/>
<path d="M1617 1181 c-4 -17 -3 -21 5 -13 5 5 8 16 6 23 -3 8 -7 3 -11 -10z"/>
<path d="M799 1140 c-22 -25 -34 -30 -73 -30 l-46 0 0 -53 c0 -79 17 -97 92
-97 53 0 59 -2 53 -17 -12 -30 -67 -235 -63 -238 2 -2 15 -6 29 -10 23 -6 30
2 99 119 41 68 76 124 77 122 1 -1 -7 -35 -17 -76 -26 -98 -26 -100 11 -100
27 0 30 -2 19 -15 -10 -13 -10 -19 5 -35 9 -10 14 -23 10 -29 -4 -7 1 -8 12
-4 16 6 17 5 3 -13 -10 -14 -11 -16 0 -7 10 10 17 10 29 1 9 -7 3 2 -12 19
-24 26 -27 37 -23 71 2 23 14 55 25 71 58 81 96 191 92 264 -2 29 -114 66
-246 81 -46 5 -52 3 -76 -24z m192 -77 c13 -16 12 -17 -3 -4 -10 7 -18 15 -18
17 0 8 8 3 21 -13z"/>
<path d="M2016 1080 c-58 -18 -105 -90 -106 -162 l0 -38 40 44 c53 57 109 72
207 57 88 -14 102 -2 50 44 -32 28 -77 46 -147 60 -8 2 -28 -1 -44 -5z"/>
<path d="M1951 866 c-23 -13 -23 -13 21 -35 24 -11 54 -21 66 -21 12 0 51 -14
86 -32 36 -18 68 -29 72 -25 14 13 -21 70 -59 98 -34 25 -49 29 -101 29 -34
-1 -72 -7 -85 -14z"/>
<path d="M1219 833 c-13 -16 -12 -17 4 -4 9 7 17 15 17 17 0 8 -8 3 -21 -13z"/>
<path d="M394 772 c3 -37 6 -82 6 -99 0 -22 5 -33 14 -33 10 0 16 19 21 68 3
37 8 76 10 87 3 16 -3 24 -27 33 l-31 11 7 -67z"/>
<path d="M1793 830 c-25 -10 -48 -43 -57 -82 -9 -41 10 -43 34 -3 12 19 39 44
61 57 27 15 35 24 27 30 -16 10 -37 9 -65 -2z"/>
<path d="M654 779 c3 -17 6 -56 6 -85 0 -40 4 -54 14 -54 10 0 16 17 21 58 3
31 8 69 10 85 4 25 2 27 -26 27 -30 0 -31 -2 -25 -31z"/>
<path d="M1144 749 c3 -34 6 -73 6 -85 0 -14 6 -24 14 -24 9 0 15 20 20 61 10
104 9 109 -20 109 -27 0 -27 0 -20 -61z"/>
<path d="M1990 772 c0 -4 22 -33 49 -64 27 -31 57 -80 67 -108 10 -27 23 -49
29 -47 5 2 11 27 13 55 3 57 -15 103 -51 127 -29 19 -107 46 -107 37z"/>
<path d="M1466 753 c-11 -11 -6 -23 9 -23 8 0 15 4 15 9 0 13 -16 22 -24 14z"/>
<path d="M910 726 c0 -2 7 -7 16 -10 8 -3 12 -2 9 4 -6 10 -25 14 -25 6z"/>
<path d="M1714 558 l-19 -23 23 19 c21 18 27 26 19 26 -2 0 -12 -10 -23 -22z"/>
<path d="M1776 515 c-7 -60 -4 -71 13 -61 18 11 23 64 8 92 -14 26 -14 26 -21
-31z"/>
<path d="M1900 455 c0 -67 10 -88 48 -104 62 -26 115 25 110 106 l-3 48 -77 3
-78 3 0 -56z"/>
</g>
</svg>
