<?xml version="1.0" standalone="no"?>
<!DOCTYPE svg PUBLIC "-//W3C//DTD SVG 20010904//EN"
 "http://www.w3.org/TR/2001/REC-SVG-20010904/DTD/svg10.dtd">
<svg version="1.0" xmlns="http://www.w3.org/2000/svg"
 width="256.000000pt" height="256.000000pt" viewBox="0 0 256.000000 256.000000"
 preserveAspectRatio="xMidYMid meet">

<g transform="translate(0.000000,256.000000) scale(0.100000,-0.100000)"
fill="#2091F9" stroke="none">
<path d="M1605 2339 c-4 -6 -5 -12 -2 -15 2 -3 7 2 10 11 7 17 1 20 -8 4z"/>
<path d="M1790 2252 l5 -97 3 89 c1 49 -1 93 -5 97 -4 5 -6 -36 -3 -89z"/>
<path d="M1013 2324 c-14 -6 -19 -179 -5 -187 4 -3 7 36 7 86 l0 92 84 3 c60
2 87 -1 93 -10 7 -10 9 -10 5 2 -3 12 -23 15 -88 17 -46 1 -90 -1 -96 -3z"/>
<path d="M1654 2321 c-2 -2 -4 -35 -4 -73 l0 -68 54 0 c62 0 64 2 56 88 l-5
55 -48 1 c-27 0 -51 -1 -53 -3z m84 -44 c2 -16 -1 -27 -9 -27 -9 0 -9 -3 0
-14 10 -11 8 -15 -6 -18 -39 -9 -51 2 -55 51 l-3 47 35 -6 c29 -4 36 -10 38
-33z m-43 -77 c3 -5 -3 -10 -14 -10 -12 0 -21 5 -21 10 0 6 6 10 14 10 8 0 18
-4 21 -10z m55 0 c0 -5 -9 -10 -20 -10 -11 0 -20 5 -20 10 0 6 9 10 20 10 11
0 20 -4 20 -10z"/>
<path d="M1602 2240 c-1 -40 3 -71 10 -78 8 -8 41 -11 93 -10 l80 2 -85 5 -85
6 -6 70 -5 70 -2 -65z"/>
<path d="M1098 2284 c-5 -4 -8 -15 -8 -25 0 -13 -5 -16 -17 -12 -12 5 -15 2
-10 -10 3 -8 1 -18 -6 -21 -7 -2 -4 -5 6 -5 9 -1 17 -5 17 -11 0 -5 9 -10 20
-10 11 0 20 5 20 10 0 6 8 10 18 11 11 0 12 2 4 6 -10 4 -10 8 0 20 11 14 10
15 -9 9 -18 -6 -22 -3 -25 20 -2 14 -6 22 -10 18z"/>
<path d="M532 2218 c-7 -7 -12 -17 -12 -22 0 -6 5 -3 11 7 9 15 27 17 152 17
98 0 147 -4 155 -12 8 -8 12 -8 12 -1 0 19 -28 23 -169 23 -93 0 -141 -4 -149
-12z"/>
<path d="M1379 2213 c70 -2 121 -8 130 -16 14 -11 14 -10 2 6 -12 15 -29 17
-130 15 l-116 -2 114 -3z"/>
<path d="M1247 2203 c-10 -9 -9 -251 1 -256 4 -3 7 55 7 129 0 74 0 134 -1
134 0 0 -4 -3 -7 -7z"/>
<path d="M1373 2177 c4 -10 7 -20 7 -23 0 -2 16 -10 35 -19 l36 -14 -68 -57
c-95 -79 -93 -77 -84 -92 11 -18 155 102 157 132 2 22 -22 56 -39 56 -6 0 -19
8 -30 18 -20 16 -20 16 -14 -1z m32 -123 c-22 -18 -44 -34 -50 -34 -5 0 10 18
35 39 25 21 47 37 50 34 3 -3 -13 -20 -35 -39z"/>
<path d="M1982 2148 c-7 -7 -11 -34 -10 -62 l1 -51 6 55 6 55 100 0 100 0 0
-95 0 -95 -100 0 -100 0 -6 40 c-6 36 -6 37 -8 8 -2 -61 2 -63 108 -63 62 0
101 4 109 12 7 7 12 44 12 98 0 54 -5 91 -12 98 -8 8 -46 12 -103 12 -57 0
-95 -4 -103 -12z"/>
<path d="M657 2122 c-10 -10 -17 -25 -17 -33 0 -8 -9 -20 -20 -27 -11 -7 -20
-17 -20 -24 0 -6 8 -4 19 6 18 16 22 15 77 -15 64 -35 107 -35 119 0 10 32 -6
51 -66 81 -69 35 -71 35 -92 12z m88 -19 c57 -28 75 -54 55 -78 -18 -21 -38
-18 -95 13 -54 29 -68 58 -39 79 22 16 14 18 79 -14z"/>
<path d="M665 2100 c-9 -15 12 -38 56 -61 47 -24 65 -24 74 -2 6 18 -26 54
-49 52 -6 0 -1 -5 12 -11 12 -6 22 -15 22 -19 0 -5 -20 1 -45 13 -25 12 -45
26 -45 30 0 12 -18 10 -25 -2z"/>
<path d="M580 2110 c-27 -27 -25 -66 5 -95 27 -28 53 -31 81 -10 17 13 16 14
-18 8 -45 -7 -68 9 -68 46 0 31 8 44 35 59 17 10 18 11 3 12 -10 0 -27 -9 -38
-20z"/>
<path d="M947 2083 c-4 -3 -7 -11 -7 -17 0 -6 4 -5 9 2 6 10 28 13 79 10 38
-1 68 0 65 5 -5 9 -137 10 -146 0z"/>
<path d="M1615 2080 c-3 -6 1 -7 9 -4 18 7 21 14 7 14 -6 0 -13 -4 -16 -10z"/>
<path d="M1918 2080 c17 -19 17 -291 0 -308 -8 -8 -8 -12 -1 -12 19 0 23 29
23 170 0 119 -2 139 -17 151 -15 11 -16 11 -5 -1z"/>
<path d="M2060 2054 c0 -8 5 -12 10 -9 6 4 8 11 5 16 -9 14 -15 11 -15 -7z"/>
<path d="M2095 2060 c-3 -5 -2 -10 4 -10 5 0 13 5 16 10 3 6 2 10 -4 10 -5 0
-13 -4 -16 -10z"/>
<path d="M997 2041 c-39 -25 -41 -29 -28 -45 11 -13 17 -13 47 1 19 9 34 23
34 30 0 8 -4 11 -10 8 -6 -3 -7 1 -4 9 8 20 -4 19 -39 -3z m23 -16 c0 -2 -10
-10 -22 -16 -21 -11 -22 -11 -9 4 13 16 31 23 31 12z"/>
<path d="M1604 1925 c0 -77 2 -107 3 -67 2 40 2 103 0 140 -2 37 -3 4 -3 -73z"/>
<path d="M2039 2040 c5 -15 20 -29 40 -36 26 -8 29 -12 18 -24 -10 -12 -9 -12
5 -1 10 7 16 17 13 21 -3 4 2 13 10 20 8 7 15 19 15 28 0 9 -7 6 -21 -12 -26
-33 -42 -33 -68 2 -21 27 -21 27 -12 2z"/>
<path d="M1855 2020 c-10 -12 -25 -18 -33 -15 -17 6 -124 -94 -118 -111 5 -13
-19 -38 -42 -45 -10 -3 -8 -10 7 -23 17 -15 21 -16 21 -4 0 18 34 51 44 41 10
-11 116 99 116 121 0 11 7 28 17 38 9 10 14 18 11 18 -3 0 -13 -9 -23 -20z
m-32 -44 c8 -20 -60 -83 -74 -69 -8 8 -2 21 22 46 38 40 45 43 52 23z"/>
<path d="M942 1980 c0 -19 2 -27 5 -17 2 9 2 25 0 35 -3 9 -5 1 -5 -18z"/>
<path d="M2050 1996 c0 -2 8 -10 18 -17 15 -13 16 -12 3 4 -13 16 -21 21 -21
13z"/>
<path d="M1035 1980 c-7 -12 2 -30 16 -30 5 0 9 9 9 20 0 21 -15 27 -25 10z"/>
<path d="M947 1928 c2 -5 38 -8 79 -8 41 0 74 3 74 8 0 4 -36 7 -79 7 -44 0
-77 -3 -74 -7z"/>
<path d="M1298 1933 c7 -3 16 -2 19 1 4 3 -2 6 -13 5 -11 0 -14 -3 -6 -6z"/>
<path d="M520 1921 c0 -6 4 -13 10 -16 6 -3 7 1 4 9 -7 18 -14 21 -14 7z"/>
<path d="M204 1897 c-3 -8 -3 -49 -1 -93 l3 -79 2 87 c1 58 6 88 15 91 9 4 9
6 -1 6 -7 1 -15 -5 -18 -12z"/>
<path d="M415 1800 c0 -59 3 -106 8 -103 4 2 7 49 7 103 0 54 -3 101 -7 103
-5 3 -8 -44 -8 -103z"/>
<path d="M287 1894 c-3 -3 -3 -12 -1 -19 3 -7 -2 -24 -10 -38 -13 -19 -15 -37
-10 -80 7 -58 24 -77 50 -56 16 13 19 124 4 134 -5 3 -10 17 -10 30 0 24 -12
39 -23 29z m31 -92 c3 -27 0 -32 -17 -32 -17 0 -21 6 -21 36 0 28 3 35 18 32
11 -2 18 -14 20 -36z"/>
<path d="M578 1893 c18 -2 45 -2 60 0 15 2 0 4 -33 4 -33 0 -45 -2 -27 -4z"/>
<path d="M708 1893 c23 -2 59 -2 80 0 20 2 1 4 -43 4 -44 0 -61 -2 -37 -4z"/>
<path d="M772 1858 c-8 -8 -12 -55 -12 -144 0 -113 2 -133 18 -145 15 -13 16
-12 4 2 -9 12 -12 53 -10 150 l3 134 134 3 c90 2 138 -1 147 -9 9 -7 14 -8 14
-1 0 18 -30 22 -159 22 -85 0 -131 -4 -139 -12z"/>
<path d="M555 1831 l60 -6 3 -62 3 -63 -65 0 -65 0 -4 65 -3 65 0 -67 1 -68
70 0 70 0 3 58 c4 77 -6 87 -77 85 l-56 -1 60 -6z"/>
<path d="M835 1808 c-3 -13 -5 -63 -3 -113 l3 -90 85 0 c81 0 85 1 88 23 2 12
8 20 13 17 5 -4 9 -1 9 4 0 6 -4 11 -10 11 -5 0 -10 37 -12 83 l-3 82 -82 3
c-79 3 -83 2 -88 -20z m161 -63 l1 -70 -6 65 -6 65 -59 3 c-41 2 -62 -1 -67
-10 -5 -7 -9 -8 -9 -2 0 21 15 25 80 22 l65 -3 1 -70z m-18 3 c3 -48 -4 -58
-26 -36 -7 7 -12 8 -12 4 0 -4 10 -16 22 -25 31 -25 15 -41 -43 -41 l-49 0 0
76 0 75 53 -3 52 -3 3 -47z m18 -123 c-7 -20 -63 -20 -63 0 0 9 10 15 23 15
13 0 26 5 30 12 10 16 18 -6 10 -27z m-86 -1 c0 -9 -11 -14 -30 -14 -22 0 -30
5 -30 18 0 15 6 18 30 14 17 -2 30 -10 30 -18z"/>
<path d="M1162 1818 c-7 -7 -12 -17 -12 -22 0 -6 5 -3 11 7 9 15 27 17 152 17
100 0 147 -4 157 -12 12 -11 12 -10 1 5 -12 15 -32 17 -155 17 -97 0 -146 -4
-154 -12z"/>
<path d="M541 1765 c-39 -44 -39 -52 -3 -26 39 27 55 48 43 55 -5 3 -23 -10
-40 -29z m29 11 c0 -2 -8 -10 -17 -17 -16 -13 -17 -12 -4 4 13 16 21 21 21 13z"/>
<path d="M1617 1769 c7 -7 15 -10 18 -7 3 3 -2 9 -12 12 -14 6 -15 5 -6 -5z"/>
<path d="M352 1754 c4 -21 22 -23 26 -1 2 10 -3 17 -13 17 -10 0 -15 -6 -13
-16z"/>
<path d="M1301 1734 c-6 -21 -8 -41 -5 -46 4 -5 -8 -2 -25 6 -34 18 -39 11
-17 -20 13 -17 12 -20 -7 -31 -21 -12 -20 -12 11 -13 32 0 40 -8 23 -25 -6 -6
6 -10 35 -10 46 0 51 4 32 23 -9 9 -3 12 28 13 38 1 38 1 11 11 l-27 10 20 25
c25 32 19 41 -13 20 -24 -16 -25 -15 -31 23 -8 53 -23 58 -35 14z"/>
<path d="M2257 1743 c7 -5 14 -42 16 -88 l3 -80 0 84 c-1 66 -4 85 -16 88 -11
3 -11 2 -3 -4z"/>
<path d="M2068 1700 c3 -20 -2 -37 -12 -49 -14 -15 -16 -36 -14 -112 l3 -94
40 0 40 0 3 91 c2 72 -1 95 -13 107 -8 9 -15 32 -15 51 0 28 -4 36 -18 36 -15
0 -18 -6 -14 -30z m41 -104 c0 -22 -4 -59 -8 -81 l-9 -40 -1 38 c-1 34 -3 38
-21 32 -18 -6 -20 -2 -20 39 0 32 5 48 17 54 29 17 43 3 42 -42z m-18 -144
c-13 -2 -27 0 -32 5 -6 6 3 7 23 4 28 -4 29 -6 9 -9z"/>
<path d="M200 1711 c0 -10 19 -25 25 -20 1 2 -3 10 -11 17 -8 7 -14 8 -14 3z"/>
<path d="M1547 1693 c-10 -9 -9 -231 1 -236 4 -3 6 48 4 113 l-3 119 28 4 c27
4 28 4 2 6 -14 0 -29 -2 -32 -6z"/>
<path d="M1633 1693 c15 -2 39 -2 55 0 15 2 2 4 -28 4 -30 0 -43 -2 -27 -4z"/>
<path d="M1730 1696 c0 -2 13 -6 29 -8 17 -2 28 -1 25 4 -5 8 -54 12 -54 4z"/>
<path d="M1794 1580 c0 -52 1 -74 3 -47 2 26 2 68 0 95 -2 26 -3 4 -3 -48z"/>
<path d="M392 1618 c-8 -8 -12 -58 -12 -160 0 -135 2 -148 19 -158 12 -6 76
-9 153 -8 l133 2 -125 3 c-189 4 -171 -14 -168 166 l3 152 149 3 c113 2 151
-1 158 -10 13 -22 10 -282 -4 -298 -11 -12 -10 -12 5 -1 15 12 17 32 17 148 0
74 -5 143 -10 154 -10 17 -23 19 -158 19 -102 0 -152 -4 -160 -12z"/>
<path d="M524 1602 c4 -7 9 -32 10 -57 2 -40 1 -43 -16 -34 -30 16 -58 0 -79
-44 -22 -50 -24 -86 -5 -112 12 -16 16 -17 30 -6 8 7 18 21 21 30 4 14 17 17
66 17 56 -1 62 -3 75 -28 25 -47 54 -27 54 37 0 72 -59 135 -97 104 -13 -11
-17 -10 -29 6 -9 12 -12 30 -9 46 4 18 0 30 -11 40 -12 10 -15 10 -10 1z m59
-116 c51 7 66 -6 74 -64 6 -48 -12 -65 -29 -27 -6 14 -17 24 -24 21 -6 -2 -11
3 -10 12 0 9 -8 18 -18 20 -15 3 -18 0 -13 -17 4 -16 0 -21 -13 -21 -13 0 -17
5 -13 21 5 17 2 20 -13 17 -12 -2 -18 -11 -16 -22 2 -10 -1 -15 -6 -12 -6 3
-17 -6 -27 -20 -23 -35 -39 -18 -29 31 10 53 36 77 69 65 14 -5 44 -7 68 -4z"/>
<path d="M476 1473 c-11 -11 -6 -23 9 -23 8 0 15 4 15 9 0 13 -16 22 -24 14z"/>
<path d="M1052 1574 c-7 -8 -8 -14 -3 -14 10 0 25 19 20 25 -2 1 -10 -3 -17
-11z"/>
<path d="M1626 1574 c-7 -17 0 -34 14 -34 15 0 19 28 6 40 -10 8 -15 6 -20 -6z"/>
<path d="M1690 1565 c0 -26 7 -30 28 -17 16 10 5 42 -14 42 -8 0 -14 -10 -14
-25z"/>
<path d="M2160 1526 c0 -8 5 -18 10 -21 6 -3 11 -18 11 -33 1 -21 2 -22 6 -7
3 11 9 24 14 30 19 19 10 45 -16 45 -15 0 -25 -6 -25 -14z"/>
<path d="M1150 1525 c-1 -29 27 -35 166 -35 123 0 143 2 155 18 11 14 11 15
-1 5 -10 -9 -57 -13 -157 -13 -125 0 -143 2 -152 18 -6 9 -11 12 -11 7z"/>
<path d="M2272 1488 c-1 -33 -7 -50 -19 -57 -10 -6 -13 -11 -7 -11 22 0 35 29
31 72 l-4 43 -1 -47z"/>
<path d="M1055 1470 c3 -5 8 -10 11 -10 2 0 4 5 4 10 0 6 -5 10 -11 10 -5 0
-7 -4 -4 -10z"/>
<path d="M1775 1460 c-3 -5 -1 -10 4 -10 6 0 11 5 11 10 0 6 -2 10 -4 10 -3 0
-8 -4 -11 -10z"/>
<path d="M976 1446 c3 -8 15 -17 27 -20 33 -8 32 1 -2 18 -25 13 -29 14 -25 2z"/>
<path d="M1205 1436 c-95 -42 -142 -159 -101 -251 l14 -30 20 46 c30 69 59 88
140 87 83 0 107 -14 137 -81 l23 -52 16 37 c30 70 10 153 -50 210 -52 48 -135
62 -199 34z"/>
<path d="M1950 1441 c0 -10 19 -25 25 -20 1 2 -3 10 -11 17 -8 7 -14 8 -14 3z"/>
<path d="M2118 1423 c7 -3 16 -2 19 1 4 3 -2 6 -13 5 -11 0 -14 -3 -6 -6z"/>
<path d="M2178 1423 c6 -2 18 -2 25 0 6 3 1 5 -13 5 -14 0 -19 -2 -12 -5z"/>
<path d="M1013 1403 c4 -3 1 -13 -6 -22 -11 -14 -10 -14 6 -2 20 15 22 31 5
31 -6 0 -8 -3 -5 -7z"/>
<path d="M945 1350 c-20 -21 -24 -30 -14 -30 20 0 63 46 51 54 -5 3 -22 -8
-37 -24z"/>
<path d="M1520 1343 c0 -4 31 -7 70 -5 l69 4 4 -69 3 -68 0 70 -1 70 -72 3
c-40 2 -73 -1 -73 -5z"/>
<path d="M1732 1328 c-8 -8 -12 -57 -12 -153 0 -138 6 -166 35 -165 5 0 2 5
-7 11 -16 9 -18 27 -18 152 0 98 4 147 12 155 7 7 10 12 7 12 -3 0 -10 -5 -17
-12z"/>
<path d="M2038 1330 c8 -10 12 -57 12 -157 0 -125 -2 -143 -17 -152 -10 -6
-13 -11 -7 -11 28 -1 34 27 34 166 0 123 -2 143 -17 155 -15 11 -16 11 -5 -1z"/>
<path d="M2114 1306 c-3 -8 -4 -23 -1 -33 3 -12 5 -8 6 10 1 26 2 27 61 27
l60 0 0 -60 0 -60 -59 0 c-57 0 -60 1 -64 28 -4 25 -4 24 -6 -6 l-1 -33 68 3
67 3 0 65 0 65 -63 3 c-48 2 -64 0 -68 -12z"/>
<path d="M897 1298 c2 -5 40 -8 83 -8 43 0 81 3 83 8 3 4 -35 7 -83 7 -48 0
-86 -3 -83 -7z"/>
<path d="M1551 1287 c-12 -12 -15 -67 -3 -67 13 1 42 27 42 39 0 16 -11 14
-26 -6 -12 -16 -13 -16 -14 -2 0 20 20 29 61 29 25 0 29 -4 29 -26 l0 -26 -20
23 c-12 15 -19 19 -20 10 0 -13 28 -40 43 -41 12 0 8 58 -5 67 -20 12 -75 12
-87 0z"/>
<path d="M1838 1248 c-75 -39 -76 -40 -66 -68 18 -54 31 -56 111 -15 39 21 73
39 75 40 5 4 -25 72 -35 78 -5 3 -43 -13 -85 -35z m57 -33 c-17 -13 -37 -24
-45 -25 -9 0 -21 -5 -28 -12 -6 -6 -15 -9 -18 -5 -9 9 -9 10 56 44 63 34 78
33 35 -2z"/>
<path d="M1315 1252 c16 -41 15 -70 -3 -112 l-19 -45 106 -242 c58 -133 115
-251 125 -262 24 -26 60 -27 86 -1 19 19 20 33 20 238 0 242 -5 262 -61 262
-44 0 -69 -31 -69 -87 0 -47 -1 -46 -66 99 -58 129 -70 148 -96 157 -27 9 -29
9 -23 -7z"/>
<path d="M2204 1262 c6 -10 2 -11 -17 -7 -15 4 -28 2 -32 -6 -5 -8 -4 -10 3
-5 6 4 20 1 31 -6 28 -17 49 3 25 23 -13 10 -16 10 -10 1z"/>
<path d="M1187 1240 c-7 -10 -38 -76 -68 -146 l-54 -126 -6 40 c-10 75 -72
108 -115 61 -17 -19 -19 -39 -19 -239 0 -200 2 -220 19 -239 23 -26 57 -27 84
-4 30 26 272 579 272 622 0 46 -85 70 -113 31z"/>
<path d="M586 1214 c-13 -13 -16 -38 -14 -142 l2 -127 3 124 c2 69 8 131 14
138 8 8 50 13 137 16 l127 3 -127 2 c-104 2 -129 -1 -142 -14z"/>
<path d="M870 1092 l5 -127 3 119 c1 66 -1 123 -5 127 -4 5 -6 -49 -3 -119z"/>
<path d="M1529 1197 c4 -4 35 -7 67 -5 l59 3 -67 5 c-37 3 -63 1 -59 -3z"/>
<path d="M320 1193 c0 -5 30 -7 67 -5 119 5 131 9 31 10 -54 1 -98 -1 -98 -5z"/>
<path d="M663 1176 c-34 -16 -40 -25 -24 -41 6 -6 7 -42 2 -89 -5 -56 -4 -79
4 -83 7 -2 43 -3 81 -1 64 3 69 5 68 26 0 14 5 22 16 22 13 0 19 11 23 42 7
51 3 58 -29 58 -26 0 -31 9 -12 28 33 33 -72 63 -129 38z m72 -6 c4 -6 14 -9
22 -8 9 2 18 -3 20 -9 4 -10 -13 -13 -61 -13 -42 0 -66 4 -66 11 0 7 9 9 24 5
16 -4 26 -1 30 9 6 17 22 20 31 5z m35 -82 c0 -18 3 -50 6 -70 l7 -38 -67 0
c-62 0 -66 1 -65 23 1 16 2 18 6 5 3 -14 15 -18 50 -18 l46 0 -7 31 c-3 17 -6
42 -6 55 0 17 -6 24 -20 24 -16 0 -20 -7 -20 -35 0 -19 -4 -35 -8 -35 -4 0 -6
16 -4 35 5 41 -15 48 -21 8 -3 -23 -4 -21 -6 10 l-1 37 55 0 55 0 0 -32z m48
-25 c-4 -39 -28 -42 -28 -4 0 21 5 31 16 31 11 0 14 -8 12 -27z"/>
<path d="M510 1100 l-5 -85 -92 0 c-50 0 -89 -3 -86 -7 8 -15 170 -9 182 6 8
9 11 43 9 93 l-4 78 -4 -85z"/>
<path d="M1925 1137 c-19 -30 -17 -55 7 -70 12 -8 21 -7 32 2 21 18 20 40 -3
70 l-18 24 -18 -26z m39 -58 c-6 -11 -31 -12 -37 -1 -3 4 6 8 19 8 13 1 21 -2
18 -7z"/>
<path d="M1045 1133 c-27 -7 -43 -23 -23 -23 9 0 25 -11 36 -24 l19 -25 16 35
c10 19 17 37 17 39 0 6 -37 5 -65 -2z"/>
<path d="M1454 1124 c5 -10 11 -27 13 -36 7 -23 16 -23 38 2 10 11 25 20 34
20 30 0 -4 19 -48 26 -41 7 -44 6 -37 -12z"/>
<path d="M430 1108 c0 -7 4 -19 9 -27 11 -17 25 3 17 24 -7 18 -26 20 -26 3z"/>
<path d="M380 1096 c0 -8 4 -17 9 -20 10 -7 23 19 14 28 -11 11 -23 6 -23 -8z"/>
<path d="M1182 847 c-51 -117 -92 -215 -92 -219 0 -4 86 -7 190 -7 105 0 190
2 190 4 0 7 -183 420 -189 427 -3 3 -48 -89 -99 -205z"/>
<path d="M858 938 c-10 -10 -14 -18 -9 -18 10 0 36 29 30 34 -2 1 -12 -6 -21
-16z"/>
<path d="M589 927 c4 -4 61 -6 127 -5 l119 3 -127 5 c-70 3 -124 1 -119 -3z"/>
<path d="M565 580 c-128 -72 -140 -82 -140 -107 l0 -28 870 0 870 0 3 25 c3
23 -10 33 -141 108 l-144 82 -116 0 -117 0 0 -25 0 -25 113 0 112 0 80 -53 80
-52 -373 -3 c-206 -1 -539 -1 -740 0 l-367 3 80 52 80 53 93 0 c91 0 92 0 92
25 0 25 0 25 -97 25 l-98 -1 -140 -79z"/>
</g>
</svg>
