<?xml version="1.0" standalone="no"?>
<!DOCTYPE svg PUBLIC "-//W3C//DTD SVG 20010904//EN"
 "http://www.w3.org/TR/2001/REC-SVG-20010904/DTD/svg10.dtd">
<svg version="1.0" xmlns="http://www.w3.org/2000/svg"
 width="256.000000pt" height="115.000000pt" viewBox="0 0 256.000000 115.000000"
 preserveAspectRatio="xMidYMid meet">

<g transform="translate(0.000000,115.000000) scale(0.100000,-0.100000)"
fill="#000000" stroke="none">
<path d="M210 1018 c-86 -45 -85 -36 -88 -398 -3 -357 -2 -366 64 -416 l37
-29 1047 0 1047 0 37 29 c66 50 67 59 64 416 -3 362 -2 353 -88 398 l-44 22
-1016 0 -1016 0 -44 -22z m2136 -60 l34 -38 0 -315 0 -315 -34 -38 -34 -37
-1042 0 -1042 0 -34 37 -34 38 0 314 0 314 27 32 c14 18 36 36 47 40 12 5 484
8 1049 7 l1029 -2 34 -37z"/>
<path d="M1210 610 c0 -100 3 -120 15 -120 11 0 15 13 15 54 0 36 5 60 16 70
33 34 54 8 54 -66 0 -45 3 -58 15 -58 12 0 15 14 15 68 0 83 -18 108 -69 97
-31 -7 -31 -6 -31 34 0 30 -4 41 -15 41 -12 0 -15 -20 -15 -120z"/>
<path d="M2002 710 c-28 -46 -4 -55 28 -10 20 28 20 30 3 30 -10 0 -24 -9 -31
-20z"/>
<path d="M330 705 c0 -3 14 -32 30 -65 20 -40 30 -74 30 -105 0 -39 3 -46 18
-43 12 2 18 16 22 53 4 28 18 73 33 102 32 62 32 63 9 63 -12 0 -27 -17 -42
-47 l-23 -48 -20 48 c-14 31 -27 47 -39 47 -10 0 -18 -2 -18 -5z"/>
<path d="M600 601 c0 -91 3 -111 15 -111 11 0 15 18 17 83 l3 82 31 -80 c23
-58 36 -80 49 -80 13 0 26 22 49 80 l31 80 3 -82 c3 -75 5 -83 22 -83 19 0 20
7 20 110 0 109 0 110 -24 110 -29 0 -37 -10 -66 -85 -13 -33 -26 -64 -30 -68
-4 -4 -20 27 -37 70 -26 67 -34 78 -57 81 l-26 3 0 -110z"/>
<path d="M1657 703 c-4 -3 -7 -53 -7 -110 0 -96 1 -103 20 -103 17 0 19 8 22
83 l3 82 30 -80 c19 -48 37 -81 47 -83 11 -2 25 20 49 80 l34 83 3 -82 c3 -75
5 -83 23 -83 19 0 20 6 17 108 l-3 107 -26 3 c-24 3 -29 -3 -59 -77 -18 -45
-33 -81 -35 -81 -2 0 -17 36 -35 80 -27 66 -36 80 -54 80 -13 0 -26 -3 -29 -7z"/>
<path d="M887 654 c-14 -14 -7 -119 8 -141 13 -19 24 -22 71 -21 l55 2 -3 80
c-2 64 -6 81 -18 81 -11 0 -16 -15 -18 -62 -2 -52 -6 -63 -23 -68 -30 -10 -38
3 -41 69 -3 55 -14 77 -31 60z"/>
<path d="M1083 645 c-38 -27 -42 -105 -7 -140 27 -27 104 -15 104 16 0 4 -19
7 -42 6 l-43 -2 -3 41 c-4 51 16 73 53 56 31 -14 46 5 20 25 -25 17 -55 17
-82 -2z"/>
<path d="M1406 639 c-22 -17 -26 -29 -26 -68 0 -58 21 -81 72 -81 48 0 78 33
78 87 0 33 -6 46 -26 62 -15 12 -37 21 -49 21 -12 0 -34 -9 -49 -21z m71 -17
c18 -11 26 -58 13 -81 -12 -23 -49 -28 -68 -9 -38 38 10 118 55 90z"/>
<path d="M1958 649 c-29 -16 -21 -31 12 -24 29 6 60 -7 60 -25 0 -4 -17 -10
-39 -14 -50 -8 -68 -28 -55 -64 9 -25 14 -27 67 -29 l57 -1 0 67 c0 53 -4 72
-18 84 -21 19 -58 22 -84 6z m70 -106 c-4 -22 -58 -31 -58 -10 0 20 10 27 37
27 18 0 24 -5 21 -17z"/>
<path d="M2116 644 c-30 -29 -13 -70 37 -87 9 -4 17 -14 17 -22 0 -12 -9 -16
-32 -15 -48 3 -52 1 -38 -15 18 -21 73 -19 94 4 24 27 12 58 -30 79 -41 19
-39 38 5 36 19 -1 31 3 31 11 0 27 -60 34 -84 9z"/>
</g>
</svg>
